<?xml version="1.0" encoding="UTF-8" standalone="no"?>
<!-- Created with Inkscape (http://www.inkscape.org/) -->

<svg
   xmlns:dc="http://purl.org/dc/elements/1.1/"
   xmlns:cc="http://creativecommons.org/ns#"
   xmlns:rdf="http://www.w3.org/1999/02/22-rdf-syntax-ns#"
   xmlns:svg="http://www.w3.org/2000/svg"
   xmlns="http://www.w3.org/2000/svg"
   xmlns:sodipodi="http://sodipodi.sourceforge.net/DTD/sodipodi-0.dtd"
   xmlns:inkscape="http://www.inkscape.org/namespaces/inkscape"
   width="505.61362"
   height="465.48325"
   id="svg2513"
   sodipodi:version="0.32"
   inkscape:version="0.48.2 r9819"
   sodipodi:docname="synchronous.svg"
   inkscape:output_extension="org.inkscape.output.svg.inkscape"
   version="1.0"
   inkscape:export-filename="/home/lenov/SBGN/svn/sbgn/EntityRelationship/trunk/examples/PCR.png"
   inkscape:export-xdpi="300"
   inkscape:export-ydpi="300">
  <defs
     id="defs2515">
    <marker
       inkscape:stockid="EmptyTriangleOutL"
       orient="auto"
       refY="0.0"
       refX="0.0"
       id="EmptyTriangleOutL"
       style="overflow:visible">
      <path
         id="path10380"
         d="M 5.77,0.0 L -2.88,5.0 L -2.88,-5.0 L 5.77,0.0 z "
         style="fill-rule:evenodd;fill:#FFFFFF;stroke:#000000;stroke-width:1.0pt;marker-start:none"
         transform="scale(0.8) translate(-6,0)" />
    </marker>
    <marker
       inkscape:stockid="TriangleOutL"
       orient="auto"
       refY="0.0"
       refX="0.0"
       id="TriangleOutL"
       style="overflow:visible">
      <path
         id="path10362"
         d="M 5.77,0.0 L -2.88,5.0 L -2.88,-5.0 L 5.77,0.0 z "
         style="fill-rule:evenodd;stroke:#000000;stroke-width:1.0pt;marker-start:none"
         transform="scale(0.8)" />
    </marker>
    <marker
       inkscape:stockid="Arrow2Lend"
       orient="auto"
       refY="0.0"
       refX="0.0"
       id="Arrow2Lend"
       style="overflow:visible;">
      <path
         id="path10240"
         style="font-size:12.0;fill-rule:evenodd;stroke-width:0.62500000;stroke-linejoin:round;"
         d="M 8.7185878,4.0337352 L -2.2072895,0.016013256 L 8.7185884,-4.0017078 C 6.9730900,-1.6296469 6.9831476,1.6157441 8.7185878,4.0337352 z "
         transform="scale(1.1) rotate(180) translate(1,0)" />
    </marker>
    <marker
       style="overflow:visible"
       id="Arrow1Mend9pS"
       refX="0"
       refY="0"
       orient="auto"
       inkscape:stockid="Arrow1Mend9pS">
      <path
         transform="matrix(-0.4,0,0,-0.4,-4,0)"
         style="fill:#000000;fill-rule:evenodd;stroke:#000000;stroke-width:1pt;marker-start:none"
         d="M 0,0 L 5,-5 L -12.5,0 L 5,5 L 0,0 z"
         id="path10352" />
    </marker>
    <marker
       style="overflow:visible"
       id="Arrow1Mend6sg"
       refX="0"
       refY="0"
       orient="auto"
       inkscape:stockid="Arrow1Mend6sg">
      <path
         transform="matrix(-0.4,0,0,-0.4,-4,0)"
         style="fill:#000000;fill-rule:evenodd;stroke:#000000;stroke-width:1pt;marker-start:none"
         d="M 0,0 L 5,-5 L -12.5,0 L 5,5 L 0,0 z"
         id="path11401" />
    </marker>
    <marker
       style="overflow:visible"
       id="Arrow1MstartMO"
       refX="0"
       refY="0"
       orient="auto"
       inkscape:stockid="Arrow1MstartMO">
      <path
         transform="matrix(0.4,0,0,0.4,4,0)"
         style="fill:#000000;fill-rule:evenodd;stroke:#000000;stroke-width:1pt;marker-start:none"
         d="M 0,0 L 5,-5 L -12.5,0 L 5,5 L 0,0 z"
         id="path11398" />
    </marker>
    <inkscape:perspective
       sodipodi:type="inkscape:persp3d"
       inkscape:vp_x="0 : 526.18109 : 1"
       inkscape:vp_y="0 : 1000 : 0"
       inkscape:vp_z="744.09448 : 526.18109 : 1"
       inkscape:persp3d-origin="372.04724 : 350.78739 : 1"
       id="perspective2521" />
  </defs>
  <sodipodi:namedview
     id="base"
     pagecolor="#ffffff"
     bordercolor="#666666"
     borderopacity="1.0"
     gridtolerance="10000"
     guidetolerance="10"
     objecttolerance="10"
     inkscape:pageopacity="0.0"
     inkscape:pageshadow="2"
     inkscape:zoom="1.7328811"
     inkscape:cx="186.12594"
     inkscape:cy="329.43161"
     inkscape:document-units="px"
     inkscape:current-layer="g11718"
     showgrid="true"
     showguides="true"
     inkscape:window-width="1022"
     inkscape:window-height="736"
     inkscape:window-x="158"
     inkscape:window-y="81"
     inkscape:snap-global="false"
     inkscape:guide-bbox="true"
     inkscape:window-maximized="0">
    <inkscape:grid
       type="xygrid"
       id="grid3938"
       visible="true"
       enabled="true" />
    <sodipodi:guide
       orientation="0,1"
       position="283.07858,202.38053"
       id="guide3443" />
    <sodipodi:guide
       orientation="0,1"
       position="291.97443,172.5159"
       id="guide3447" />
    <sodipodi:guide
       orientation="0,1"
       position="245.58401,228.36123"
       id="guide3449" />
  </sodipodi:namedview>
  <metadata
     id="metadata2518">
    <rdf:RDF>
      <cc:Work
         rdf:about="">
        <dc:format>image/svg+xml</dc:format>
        <dc:type
           rdf:resource="http://purl.org/dc/dcmitype/StillImage" />
        <dc:title></dc:title>
      </cc:Work>
    </rdf:RDF>
  </metadata>
  <g
     style="display:inline"
     inkscape:label="ER-OR"
     id="g11718"
     inkscape:groupmode="layer">
    <g
       transform="matrix(1.25,0,0,1.25,-16.19565,31.50262)"
       id="g11720"
       style="display:inline">
      <path
         id="path11722"
         style="fill:#ffffff;fill-opacity:1;fill-rule:nonzero;stroke:#000000;stroke-width:2.4000001;stroke-linecap:butt;stroke-linejoin:miter;stroke-miterlimit:4;stroke-opacity:1;stroke-dasharray:none"
         d="m 272.438,110.371 63,0 c 10.066,0 18.171,6.676 18.171,14.969 l 0,30.871 c 0,8.293 -8.105,14.969 -18.171,14.969 l -63,0 c -10.067,0 -18.172,-6.676 -18.172,-14.969 l 0,-30.871 c 0,-8.293 8.105,-14.969 18.172,-14.969 z"
         inkscape:connector-curvature="0" />
    </g>
    <text
       id="text11724"
       x="355.33441"
       y="217.95416"
       style="font-size:15px;display:inline">
      <tspan
         id="tspan11726"
         y="217.95416"
         x="355.33441"
         style="font-size:24px;font-variant:normal;font-weight:normal;writing-mode:lr-tb;fill:#000000;fill-opacity:1;fill-rule:nonzero;stroke:none;font-family:Bitstream Vera Sans;-inkscape-font-specification:BitstreamVeraSans-Roman">B</tspan>
    </text>
    <g
       transform="matrix(1.25,0,0,1.25,-16.19565,31.50262)"
       id="g11736"
       style="display:inline">
      <path
         id="path11738"
         style="fill:#ffffff;fill-opacity:1;fill-rule:nonzero;stroke:#000000;stroke-width:2.4000001;stroke-linecap:butt;stroke-linejoin:miter;stroke-miterlimit:4;stroke-opacity:1;stroke-dasharray:none"
         d="m 71.199,109.75 63,0 c 10.067,0 18.172,6.676 18.172,14.973 l 0,30.867 c 0,8.293 -8.105,14.972 -18.172,14.972 l -63,0 c -10.066,0 -18.172,-6.679 -18.172,-14.972 l 0,-30.867 c 0,-8.297 8.106,-14.973 18.172,-14.973 z"
         inkscape:connector-curvature="0" />
    </g>
    <text
       id="text11740"
       x="103.81104"
       y="217.18004"
       style="font-size:15px;display:inline">
      <tspan
         id="tspan11742"
         y="217.18004"
         x="103.81104"
         style="font-size:24px;font-variant:normal;font-weight:normal;writing-mode:lr-tb;fill:#000000;fill-opacity:1;fill-rule:nonzero;stroke:none;font-family:Bitstream Vera Sans;-inkscape-font-specification:BitstreamVeraSans-Roman">A</tspan>
    </text>
    <g
       id="g5871"
       transform="translate(-27.233178,-49.248835)">
      <path
         id="path11746"
         style="fill:#ffffff;fill-opacity:1;fill-rule:nonzero;stroke:#000000;stroke-width:3;stroke-linecap:butt;stroke-linejoin:miter;stroke-miterlimit:4;stroke-opacity:1;stroke-dasharray:none"
         d="m 192.32685,219.95012 c 0,7.64125 -6.19625,13.8375 -13.8375,13.8375 -7.6475,0 -13.84375,-6.19625 -13.84375,-13.8375 0,-7.64625 6.19625,-13.8425 13.84375,-13.8425 7.64125,0 13.8375,6.19625 13.8375,13.8425 z"
         inkscape:connector-curvature="0" />
      <path
         id="path11750"
         style="fill:#000000;fill-opacity:1;fill-rule:nonzero;stroke:#000000;stroke-width:3.07598758;stroke-linecap:butt;stroke-linejoin:miter;stroke-miterlimit:4;stroke-opacity:1;stroke-dasharray:none"
         d="m 178.17626,206.21512 c 7.7103,0 13.96486,6.1475 13.96486,13.73 0,7.5775 -6.25456,13.725 -13.96486,13.725 -0.0237,0 -0.0485,0 -0.0733,0 l 0.0733,-13.725 0,-13.73 z"
         inkscape:connector-curvature="0" />
    </g>
    <g
       id="g5875"
       transform="matrix(1,0,0,-1,-24.34781,390.23564)">
      <g
         style="display:inline"
         id="g11752"
         transform="matrix(1.25,0,0,1.25,1.80435,11.50262)">
        <path
           inkscape:connector-curvature="0"
           d="m 140.715,211.039 0,-28.242"
           style="fill:none;stroke:#000000;stroke-width:2.04078007;stroke-linecap:butt;stroke-linejoin:miter;stroke-miterlimit:4;stroke-opacity:1;stroke-dasharray:none"
           id="path11754" />
      </g>
      <g
         style="display:inline"
         id="g11756"
         transform="matrix(0,1.25,-1.25,0,1.80435,11.50262)">
        <path
           inkscape:connector-curvature="0"
           d="m 190.961,-140.715 4.078,-4.082 -14.285,4.082 14.285,4.082 -4.078,-4.082 z"
           style="fill:#000000;fill-opacity:1;fill-rule:evenodd;stroke:#000000;stroke-width:1.02039003;stroke-linecap:butt;stroke-linejoin:miter;stroke-miterlimit:4;stroke-opacity:1;stroke-dasharray:none"
           id="path11758" />
      </g>
      <g
         style="display:inline"
         id="g11760"
         transform="matrix(1.25,0,0,-1.25,1.80435,11.50262)">
        <path
           inkscape:connector-curvature="0"
           d="m 151.742,-222.531 c 0,6.113 -4.957,11.07 -11.074,11.07 -6.113,0 -11.07,-4.957 -11.07,-11.07 0,-6.117 4.957,-11.074 11.07,-11.074 6.117,0 11.074,4.957 11.074,11.074 z"
           style="fill:none;stroke:#000000;stroke-width:2.4000001;stroke-linecap:butt;stroke-linejoin:miter;stroke-miterlimit:4;stroke-opacity:1;stroke-dasharray:none"
           id="path11762" />
      </g>
    </g>
    <text
       id="text11764"
       x="149.37898"
       y="105.64809"
       style="font-size:15px;display:inline">
      <tspan
         id="tspan11766"
         y="105.64809"
         x="149.37898"
         style="font-size:16px;font-variant:normal;font-weight:normal;writing-mode:lr-tb;fill:#000000;fill-opacity:1;fill-rule:nonzero;stroke:none;font-family:Bitstream Vera Sans;-inkscape-font-specification:BitstreamVeraSans-Roman">F</tspan>
    </text>
    <text
       id="text11780"
       x="327.16959"
       y="107.10208"
       style="font-size:15px;display:inline">
      <tspan
         id="tspan11782"
         y="107.10208"
         x="327.16959"
         style="font-size:16px;font-variant:normal;font-weight:normal;writing-mode:lr-tb;fill:#000000;fill-opacity:1;fill-rule:nonzero;stroke:none;font-family:Bitstream Vera Sans;-inkscape-font-specification:BitstreamVeraSans-Roman">T</tspan>
    </text>
    <g
       id="g11784"
       transform="matrix(1.25,0,0,1.25,-220.3123,-133.26438)"
       style="display:inline">
      <path
         inkscape:connector-curvature="0"
         d="m 268.30007,110.371 48.65434,0 c 7.77388,0 14.0333,6.676 14.0333,14.969 l 0,30.871 c 0,8.293 -6.25942,14.969 -14.0333,14.969 l -48.65434,0 c -7.77465,0 -14.03407,-6.676 -14.03407,-14.969 l 0,-30.871 c 0,-8.293 6.25942,-14.969 14.03407,-14.969 z"
         style="fill:#ffffff;fill-opacity:1;fill-rule:nonzero;stroke:#000000;stroke-width:2.4000001;stroke-linecap:butt;stroke-linejoin:miter;stroke-miterlimit:4;stroke-opacity:1;stroke-dasharray:none"
         id="path11786" />
    </g>
    <text
       style="font-size:15px;display:inline"
       y="47.993492"
       x="131.28114"
       id="text11788">
      <tspan
         style="font-size:24px;font-variant:normal;font-weight:normal;writing-mode:lr-tb;fill:#000000;fill-opacity:1;fill-rule:nonzero;stroke:none;font-family:Bitstream Vera Sans;-inkscape-font-specification:BitstreamVeraSans-Roman"
         x="131.28114"
         y="47.993492"
         id="tspan11790">C</tspan>
    </text>
    <g
       id="g5931"
       transform="translate(-40.972228,-31.73905)">
      <g
         style="display:inline"
         transform="matrix(1.25,0,0,1.25,-90.20978,-129.22487)"
         id="g11792">
        <path
           id="path11794"
           style="fill:#ffffff;fill-opacity:1;fill-rule:nonzero;stroke:#000000;stroke-width:2.4000001;stroke-linecap:butt;stroke-linejoin:miter;stroke-miterlimit:4;stroke-opacity:1;stroke-dasharray:none"
           d="m 271.238,165.504 c 0,6.113 -4.957,11.07 -11.074,11.07 -6.113,0 -11.07,-4.957 -11.07,-11.07 0,-6.113 4.957,-11.07 11.07,-11.07 6.117,0 11.074,4.957 11.074,11.07 z"
           inkscape:connector-curvature="0" />
      </g>
      <g
         style="display:inline"
         transform="matrix(0,-1.25,1.1825612,0,-90.20978,-129.22487)"
         id="g11796">
        <path
           id="path11798"
           style="fill:#000000;fill-opacity:1;fill-rule:nonzero;stroke:#000000;stroke-width:2.529984;stroke-linecap:butt;stroke-linejoin:miter;stroke-miterlimit:4;stroke-opacity:1;stroke-dasharray:none"
           d="m -154.52,274.741 c 0,6.519 -4.914,11.809 -10.98,11.809 -6.062,0 -10.98,-5.29 -10.98,-11.809 0,-0.021 0,-0.042 0,-0.062 l 10.98,0.062 10.98,0 z"
           inkscape:connector-curvature="0" />
      </g>
    </g>
    <path
       inkscape:connector-curvature="0"
       id="path11818"
       d="m 309.19066,35.497116 -35.88509,42.099623 -57.97178,-0.08026"
       style="fill:none;stroke:#000000;stroke-width:2;stroke-linecap:butt;stroke-linejoin:miter;stroke-miterlimit:4;stroke-opacity:1;stroke-dasharray:none;marker-end:url(#EmptyTriangleOutL);display:inline"
       sodipodi:nodetypes="ccc"
       transform="translate(-58.5,53.65379)" />
    <path
       style="fill:none;stroke:#000000;stroke-width:2;stroke-linecap:butt;stroke-linejoin:miter;stroke-miterlimit:4;stroke-opacity:1;stroke-dasharray:none;marker-end:url(#EmptyTriangleOutL);display:inline"
       d="m 251.43364,89.575936 31.71844,40.446554 46.14529,0.0514"
       id="path11820"
       inkscape:connector-curvature="0"
       sodipodi:nodetypes="ccc" />
    <text
       id="text11822"
       x="266.42816"
       y="51.054188"
       style="font-size:15px;display:inline"
       inkscape:transform-center-x="133.30401"
       inkscape:transform-center-y="102.14203">
      <tspan
         id="tspan11824"
         y="51.054188"
         x="266.42816"
         style="font-size:16px;font-variant:normal;font-weight:normal;writing-mode:lr-tb;fill:#000000;fill-opacity:1;fill-rule:nonzero;stroke:none;font-family:Bitstream Vera Sans;-inkscape-font-specification:BitstreamVeraSans-Roman">T</tspan>
    </text>
    <g
       id="g5922"
       transform="matrix(0,-1,1,0,118.67614,280.59811)">
      <g
         style="display:inline"
         transform="matrix(1.25,0,0,1.4436297,-90.20978,-164.07737)"
         id="g11800">
        <path
           id="path11802"
           style="fill:none;stroke:#000000;stroke-width:1.89899278;stroke-linecap:butt;stroke-linejoin:miter;stroke-miterlimit:4;stroke-opacity:1;stroke-dasharray:none"
           d="m 259.332,209.258 0,-28.242"
           inkscape:connector-curvature="0" />
      </g>
      <g
         style="display:inline"
         transform="matrix(0,1.25,-1.25,0,-90.20978,-129.22487)"
         id="g11804">
        <path
           id="path11806"
           style="fill:#000000;fill-opacity:1;fill-rule:evenodd;stroke:#000000;stroke-width:1.02039003;stroke-linecap:butt;stroke-linejoin:miter;stroke-miterlimit:4;stroke-opacity:1;stroke-dasharray:none"
           d="m 189.18,-259.332 4.082,-4.082 -14.285,4.082 14.285,4.082 -4.082,-4.082 z"
           inkscape:connector-curvature="0" />
      </g>
      <g
         style="display:inline"
         transform="matrix(1.25,0,0,-1.25,-90.20978,-123.22487)"
         id="g11808">
        <path
           id="path11810"
           style="fill:none;stroke:#000000;stroke-width:2.4000001;stroke-linecap:butt;stroke-linejoin:miter;stroke-miterlimit:4;stroke-opacity:1;stroke-dasharray:none"
           d="m 270.355,-220.754 c 0,6.117 -4.957,11.074 -11.074,11.074 -6.113,0 -11.07,-4.957 -11.07,-11.074 0,-6.113 4.957,-11.07 11.07,-11.07 6.117,0 11.074,4.957 11.074,11.07 z"
           inkscape:connector-curvature="0" />
      </g>
      <path
         sodipodi:type="arc"
         style="fill:#000000;fill-opacity:1;fill-rule:nonzero;stroke:#000000;stroke-width:2;stroke-miterlimit:10;stroke-opacity:1;stroke-dasharray:none;display:inline"
         id="path11834"
         sodipodi:cx="232.74162"
         sodipodi:cy="124.94076"
         sodipodi:rx="4.5104966"
         sodipodi:ry="4.0594468"
         d="m 237.25212,124.94076 c 0,2.24197 -2.01942,4.05944 -4.5105,4.05944 -2.49108,0 -4.51049,-1.81747 -4.51049,-4.05944 0,-2.24197 2.01941,-4.05945 4.51049,-4.05945 2.49108,0 4.5105,1.81748 4.5105,4.05945 z"
         transform="translate(0.956821,6.172717)" />
    </g>
    <g
       transform="translate(151.08257,-50.980056)"
       id="g5883">
      <path
         inkscape:connector-curvature="0"
         d="m 192.32685,219.95012 c 0,7.64125 -6.19625,13.8375 -13.8375,13.8375 -7.6475,0 -13.84375,-6.19625 -13.84375,-13.8375 0,-7.64625 6.19625,-13.8425 13.84375,-13.8425 7.64125,0 13.8375,6.19625 13.8375,13.8425 z"
         style="fill:#ffffff;fill-opacity:1;fill-rule:nonzero;stroke:#000000;stroke-width:3;stroke-linecap:butt;stroke-linejoin:miter;stroke-miterlimit:4;stroke-opacity:1;stroke-dasharray:none"
         id="path5885" />
      <path
         inkscape:connector-curvature="0"
         d="m 178.17626,206.21512 c 7.7103,0 13.96486,6.1475 13.96486,13.73 0,7.5775 -6.25456,13.725 -13.96486,13.725 -0.0237,0 -0.0485,0 -0.0733,0 l 0.0733,-13.725 0,-13.73 z"
         style="fill:#000000;fill-opacity:1;fill-rule:nonzero;stroke:#000000;stroke-width:3.07598758;stroke-linecap:butt;stroke-linejoin:miter;stroke-miterlimit:4;stroke-opacity:1;stroke-dasharray:none"
         id="path5887" />
    </g>
    <g
       transform="matrix(1,0,0,-1,153.96794,388.50442)"
       id="g5889">
      <g
         transform="matrix(1.25,0,0,1.25,1.80435,11.50262)"
         id="g5891"
         style="display:inline">
        <path
           id="path5893"
           style="fill:none;stroke:#000000;stroke-width:2.04078007;stroke-linecap:butt;stroke-linejoin:miter;stroke-miterlimit:4;stroke-opacity:1;stroke-dasharray:none"
           d="m 140.715,211.039 0,-28.242"
           inkscape:connector-curvature="0" />
      </g>
      <g
         transform="matrix(0,1.25,-1.25,0,1.80435,11.50262)"
         id="g5895"
         style="display:inline">
        <path
           id="path5897"
           style="fill:#000000;fill-opacity:1;fill-rule:evenodd;stroke:#000000;stroke-width:1.02039003;stroke-linecap:butt;stroke-linejoin:miter;stroke-miterlimit:4;stroke-opacity:1;stroke-dasharray:none"
           d="m 190.961,-140.715 4.078,-4.082 -14.285,4.082 14.285,4.082 -4.078,-4.082 z"
           inkscape:connector-curvature="0" />
      </g>
      <g
         transform="matrix(1.25,0,0,-1.25,1.80435,11.50262)"
         id="g5899"
         style="display:inline">
        <path
           id="path5901"
           style="fill:none;stroke:#000000;stroke-width:2.4000001;stroke-linecap:butt;stroke-linejoin:miter;stroke-miterlimit:4;stroke-opacity:1;stroke-dasharray:none"
           d="m 151.742,-222.531 c 0,6.113 -4.957,11.07 -11.074,11.07 -6.113,0 -11.07,-4.957 -11.07,-11.07 0,-6.117 4.957,-11.074 11.07,-11.074 6.117,0 11.074,4.957 11.074,11.074 z"
           inkscape:connector-curvature="0" />
      </g>
    </g>
    <path
       style="fill:none;stroke:#000000;stroke-width:2;stroke-linecap:butt;stroke-linejoin:miter;stroke-opacity:1;stroke-miterlimit:4;stroke-dasharray:none"
       d="m 250.44995,47.104868 0,43.280522 0,0"
       id="path5937"
       inkscape:connector-curvature="0" />
  </g>
</svg>
