<?xml version="1.0" encoding="UTF-8" standalone="no"?>
<!-- Created with Inkscape (http://www.inkscape.org/) -->

<svg
   xmlns:dc="http://purl.org/dc/elements/1.1/"
   xmlns:cc="http://creativecommons.org/ns#"
   xmlns:rdf="http://www.w3.org/1999/02/22-rdf-syntax-ns#"
   xmlns:svg="http://www.w3.org/2000/svg"
   xmlns="http://www.w3.org/2000/svg"
   xmlns:sodipodi="http://sodipodi.sourceforge.net/DTD/sodipodi-0.dtd"
   xmlns:inkscape="http://www.inkscape.org/namespaces/inkscape"
   width="1488.189"
   height="1052.3622"
   id="svg2"
   sodipodi:version="0.32"
   inkscape:version="0.48.2 r9819"
   version="1.0"
   sodipodi:docname="ex-stimulation.eps"
   inkscape:output_extension="org.inkscape.output.svg.inkscape"
   inkscape:export-filename="/Users/asorokin/Documents/Projects/Notation/sbgn-code/EntityRelationship/trunk/examples/ex-stimulation.png"
   inkscape:export-xdpi="300"
   inkscape:export-ydpi="300">
  <sodipodi:namedview
     id="base"
     pagecolor="#ffffff"
     bordercolor="#666666"
     borderopacity="1.0"
     gridtolerance="10000"
     guidetolerance="10"
     objecttolerance="10"
     inkscape:pageopacity="0.0"
     inkscape:pageshadow="2"
     inkscape:zoom="2.8632095"
     inkscape:cx="324.35209"
     inkscape:cy="497.76822"
     inkscape:document-units="px"
     inkscape:current-layer="layer2"
     width="1052.3622px"
     height="744.09448px"
     inkscape:window-width="1280"
     inkscape:window-height="756"
     inkscape:window-x="-5"
     inkscape:window-y="0"
     showguides="true"
     inkscape:guide-bbox="true"
     showgrid="false"
     inkscape:window-maximized="0">
    <sodipodi:guide
       id="guide2990"
       position="1064"
       orientation="vertical" />
    <sodipodi:guide
       id="guide3940"
       position="850.64737,697.92153"
       orientation="horizontal" />
    <sodipodi:guide
       id="guide3942"
       position="395.56201,140.05545"
       orientation="horizontal" />
    <sodipodi:guide
       id="guide3249"
       position="192.68317,360.94796"
       orientation="1,0" />
    <sodipodi:guide
       id="guide3251"
       position="339.96817,411.39765"
       orientation="1,0" />
    <sodipodi:guide
       id="guide4658"
       position="685.77845,333.62195"
       orientation="1,0" />
    <sodipodi:guide
       id="guide4660"
       position="712.30988,611.60284"
       orientation="1,0" />
    <sodipodi:guide
       id="guide4662"
       position="780.60066,446.55984"
       orientation="1,0" />
    <sodipodi:guide
       id="guide4664"
       position="764.29819,467.01784"
       orientation="1,0" />
    <sodipodi:guide
       id="guide4666"
       position="66.554116,725.81658"
       orientation="0,1" />
    <sodipodi:guide
       id="guide3349"
       position="238.41212,354.73238"
       orientation="1,0" />
    <sodipodi:guide
       id="guide3353"
       position="417.33222,573.60981"
       orientation="-0.70710678,0.70710678" />
    <sodipodi:guide
       id="guide3355"
       position="483.45915,524.8985"
       orientation="-0.70710678,0.70710678" />
    <sodipodi:guide
       id="guide3357"
       position="216.2136,367.16355"
       orientation="1,0" />
  </sodipodi:namedview>
  <defs
     id="defs4">
    <marker
       style="overflow:visible"
       id="Arrow1Send"
       refX="0"
       refY="0"
       orient="auto"
       inkscape:stockid="Arrow1Send">
      <path
         transform="matrix(-0.2,0,0,-0.2,-1.2,0)"
         style="fill-rule:evenodd;stroke:#000000;stroke-width:1pt;marker-start:none"
         d="M 0,0 L 5,-5 L -12.5,0 L 5,5 L 0,0 z"
         id="path3269" />
    </marker>
    <inkscape:perspective
       id="perspective73"
       inkscape:persp3d-origin="526.18109 : 248.03149 : 1"
       inkscape:vp_z="1052.3622 : 372.04724 : 1"
       inkscape:vp_y="6.1230318e-14 : 1000 : 0"
       inkscape:vp_x="0 : 372.04724 : 1"
       sodipodi:type="inkscape:persp3d" />
    <marker
       style="overflow:visible"
       id="Arrow1Mstart"
       refX="0"
       refY="0"
       orient="auto"
       inkscape:stockid="Arrow1Mstart">
      <path
         transform="matrix(0.4,0,0,0.4,4,0)"
         style="fill-rule:evenodd;stroke:#000000;stroke-width:1pt;marker-start:none"
         d="M 0,0 L 5,-5 L -12.5,0 L 5,5 L 0,0 z"
         id="path3229" />
    </marker>
    <marker
       style="overflow:visible"
       id="Arrow1Mend"
       refX="0"
       refY="0"
       orient="auto"
       inkscape:stockid="Arrow1Mend">
      <path
         transform="matrix(-0.4,0,0,-0.4,-4,0)"
         style="fill-rule:evenodd;stroke:#000000;stroke-width:1pt;marker-start:none"
         d="M 0,0 L 5,-5 L -12.5,0 L 5,5 L 0,0 z"
         id="path2972" />
    </marker>
    <marker
       style="overflow:visible"
       id="Arrow1Lend"
       refX="0"
       refY="0"
       orient="auto"
       inkscape:stockid="Arrow1Lend">
      <path
         transform="matrix(-0.8,0,0,-0.8,-10,0)"
         style="fill-rule:evenodd;stroke:#000000;stroke-width:1pt;marker-start:none"
         d="M 0,0 L 5,-5 L -12.5,0 L 5,5 L 0,0 z"
         id="path2978" />
    </marker>
    <marker
       style="overflow:visible"
       id="Arrow1Mendj"
       refX="0"
       refY="0"
       orient="auto"
       inkscape:stockid="Arrow1Mendj">
      <path
         transform="matrix(-0.4,0,0,-0.4,-4,0)"
         style="fill:#0000ff;fill-rule:evenodd;stroke:#0000ff;stroke-width:1pt;marker-start:none"
         d="M 0,0 L 5,-5 L -12.5,0 L 5,5 L 0,0 z"
         id="path4298" />
    </marker>
    <marker
       style="overflow:visible"
       id="Arrow1Mend9"
       refX="0"
       refY="0"
       orient="auto"
       inkscape:stockid="Arrow1Mend9">
      <path
         transform="matrix(-0.4,0,0,-0.4,-4,0)"
         style="fill:#0000ff;fill-rule:evenodd;stroke:#0000ff;stroke-width:1pt;marker-start:none"
         d="M 0,0 L 5,-5 L -12.5,0 L 5,5 L 0,0 z"
         id="path4711" />
    </marker>
    <marker
       style="overflow:visible"
       id="Arrow1Mend6"
       refX="0"
       refY="0"
       orient="auto"
       inkscape:stockid="Arrow1Mend6">
      <path
         transform="matrix(-0.4,0,0,-0.4,-4,0)"
         style="fill:#ff0000;fill-rule:evenodd;stroke:#ff0000;stroke-width:1pt;marker-start:none"
         d="M 0,0 L 5,-5 L -12.5,0 L 5,5 L 0,0 z"
         id="path5128" />
    </marker>
    <marker
       style="overflow:visible"
       id="Arrow1Mendv"
       refX="0"
       refY="0"
       orient="auto"
       inkscape:stockid="Arrow1Mendv">
      <path
         transform="matrix(-0.4,0,0,-0.4,-4,0)"
         style="fill:#ff0000;fill-rule:evenodd;stroke:#ff0000;stroke-width:1pt;marker-start:none"
         d="M 0,0 L 5,-5 L -12.5,0 L 5,5 L 0,0 z"
         id="path5131" />
    </marker>
    <marker
       style="overflow:visible"
       id="Arrow1Mend9p"
       refX="0"
       refY="0"
       orient="auto"
       inkscape:stockid="Arrow1Mend9p">
      <path
         transform="matrix(-0.4,0,0,-0.4,-4,0)"
         style="fill:#ff0000;fill-rule:evenodd;stroke:#ff0000;stroke-width:1pt;marker-start:none"
         d="M 0,0 L 5,-5 L -12.5,0 L 5,5 L 0,0 z"
         id="path6623" />
    </marker>
    <marker
       style="overflow:visible"
       id="Arrow1Mend8"
       refX="0"
       refY="0"
       orient="auto"
       inkscape:stockid="Arrow1Mend8">
      <path
         transform="matrix(-0.4,0,0,-0.4,-4,0)"
         style="fill:#0000ff;fill-rule:evenodd;stroke:#0000ff;stroke-width:1pt;marker-start:none"
         d="M 0,0 L 5,-5 L -12.5,0 L 5,5 L 0,0 z"
         id="path7088" />
    </marker>
    <marker
       style="overflow:visible"
       id="Arrow1Mendn"
       refX="0"
       refY="0"
       orient="auto"
       inkscape:stockid="Arrow1Mendn">
      <path
         transform="matrix(-0.4,0,0,-0.4,-4,0)"
         style="fill:#0000ff;fill-rule:evenodd;stroke:#0000ff;stroke-width:1pt;marker-start:none"
         d="M 0,0 L 5,-5 L -12.5,0 L 5,5 L 0,0 z"
         id="path7091" />
    </marker>
    <marker
       style="overflow:visible"
       id="Arrow1MstartM"
       refX="0"
       refY="0"
       orient="auto"
       inkscape:stockid="Arrow1MstartM">
      <path
         transform="matrix(0.4,0,0,0.4,4,0)"
         style="marker-start:none;stroke:#0000ff;stroke-width:1pt;fill:#0000ff;fill-rule:evenodd"
         d="M 0,0 L 5,-5 L -12.5,0 L 5,5 L 0,0 z"
         id="path7576" />
    </marker>
    <marker
       style="overflow:visible"
       id="Arrow1Mend6s"
       refX="0"
       refY="0"
       orient="auto"
       inkscape:stockid="Arrow1Mend6s">
      <path
         transform="matrix(-0.4,0,0,-0.4,-4,0)"
         style="marker-start:none;stroke:#0000ff;stroke-width:1pt;fill:#0000ff;fill-rule:evenodd"
         d="M 0,0 L 5,-5 L -12.5,0 L 5,5 L 0,0 z"
         id="path7579" />
    </marker>
    <marker
       style="overflow:visible"
       id="Arrow1Mend1"
       refX="0"
       refY="0"
       orient="auto"
       inkscape:stockid="Arrow1Mend1">
      <path
         transform="matrix(-0.4,0,0,-0.4,-4,0)"
         style="marker-start:none;stroke:#0000ff;stroke-width:1pt;fill:#0000ff;fill-rule:evenodd"
         d="M 0,0 L 5,-5 L -12.5,0 L 5,5 L 0,0 z"
         id="path8060" />
    </marker>
    <marker
       style="overflow:visible"
       id="Arrow1Mendj3"
       refX="0"
       refY="0"
       orient="auto"
       inkscape:stockid="Arrow1Mendj3">
      <path
         transform="matrix(-0.4,0,0,-0.4,-4,0)"
         style="stroke-width:1pt;marker-start:none;stroke:#000000;fill-rule:evenodd;fill:#000000"
         d="M 0,0 L 5,-5 L -12.5,0 L 5,5 L 0,0 z"
         id="path8823" />
    </marker>
    <marker
       style="overflow:visible"
       id="Arrow1Mend94"
       refX="0"
       refY="0"
       orient="auto"
       inkscape:stockid="Arrow1Mend94">
      <path
         transform="matrix(-0.4,0,0,-0.4,-4,0)"
         style="stroke-width:1pt;marker-start:none;stroke:#000000;fill-rule:evenodd;fill:#000000"
         d="M 0,0 L 5,-5 L -12.5,0 L 5,5 L 0,0 z"
         id="path9324" />
    </marker>
    <marker
       style="overflow:visible"
       id="Arrow1Mend68"
       refX="0"
       refY="0"
       orient="auto"
       inkscape:stockid="Arrow1Mend68">
      <path
         transform="matrix(-0.4,0,0,-0.4,-4,0)"
         style="stroke-width:1pt;marker-start:none;stroke:#000000;fill-rule:evenodd;fill:#000000"
         d="M 0,0 L 5,-5 L -12.5,0 L 5,5 L 0,0 z"
         id="path9829" />
    </marker>
    <marker
       style="overflow:visible"
       id="Arrow1MendvX"
       refX="0"
       refY="0"
       orient="auto"
       inkscape:stockid="Arrow1MendvX">
      <path
         transform="matrix(-0.4,0,0,-0.4,-4,0)"
         style="stroke-width:1pt;marker-start:none;stroke:#000000;fill-rule:evenodd;fill:#000000"
         d="M 0,0 L 5,-5 L -12.5,0 L 5,5 L 0,0 z"
         id="path9832" />
    </marker>
    <marker
       style="overflow:visible"
       id="Arrow1Mendne"
       refX="0"
       refY="0"
       orient="auto"
       inkscape:stockid="Arrow1Mendne">
      <path
         transform="matrix(-0.4,0,0,-0.4,-4,0)"
         style="stroke-width:1pt;marker-start:none;stroke:#000000;fill-rule:evenodd;fill:#000000"
         d="M 0,0 L 5,-5 L -12.5,0 L 5,5 L 0,0 z"
         id="path9835" />
    </marker>
    <marker
       style="overflow:visible"
       id="Arrow1Mend9pS"
       refX="0"
       refY="0"
       orient="auto"
       inkscape:stockid="Arrow1Mend9pS">
      <path
         transform="matrix(-0.4,0,0,-0.4,-4,0)"
         style="stroke-width:1pt;marker-start:none;stroke:#000000;fill-rule:evenodd;fill:#000000"
         d="M 0,0 L 5,-5 L -12.5,0 L 5,5 L 0,0 z"
         id="path10352" />
    </marker>
    <marker
       style="overflow:visible"
       id="Arrow1Mend1a"
       refX="0"
       refY="0"
       orient="auto"
       inkscape:stockid="Arrow1Mend1a">
      <path
         transform="matrix(-0.4,0,0,-0.4,-4,0)"
         style="fill-rule:evenodd;marker-start:none;stroke:#000000;stroke-width:1pt;fill:#000000"
         d="M 0,0 L 5,-5 L -12.5,0 L 5,5 L 0,0 z"
         id="path10873" />
    </marker>
    <marker
       style="overflow:visible"
       id="Arrow1MstartMO"
       refX="0"
       refY="0"
       orient="auto"
       inkscape:stockid="Arrow1MstartMO">
      <path
         transform="matrix(0.4,0,0,0.4,4,0)"
         style="fill-rule:evenodd;marker-start:none;stroke:#000000;stroke-width:1pt;fill:#000000"
         d="M 0,0 L 5,-5 L -12.5,0 L 5,5 L 0,0 z"
         id="path11398" />
    </marker>
    <marker
       style="overflow:visible"
       id="Arrow1Mend6sg"
       refX="0"
       refY="0"
       orient="auto"
       inkscape:stockid="Arrow1Mend6sg">
      <path
         transform="matrix(-0.4,0,0,-0.4,-4,0)"
         style="fill-rule:evenodd;marker-start:none;stroke:#000000;stroke-width:1pt;fill:#000000"
         d="M 0,0 L 5,-5 L -12.5,0 L 5,5 L 0,0 z"
         id="path11401" />
    </marker>
    <marker
       style="overflow:visible"
       id="Arrow1Mend80"
       refX="0"
       refY="0"
       orient="auto"
       inkscape:stockid="Arrow1Mend80">
      <path
         transform="matrix(-0.4,0,0,-0.4,-4,0)"
         style="stroke-width:1pt;marker-start:none;stroke:#000000;fill-rule:evenodd;fill:#000000"
         d="M 0,0 L 5,-5 L -12.5,0 L 5,5 L 0,0 z"
         id="path11404" />
    </marker>
    <marker
       style="overflow:visible"
       id="Arrow1Mendv9"
       refX="0"
       refY="0"
       orient="auto"
       inkscape:stockid="Arrow1Mendv9">
      <path
         transform="matrix(-0.4,0,0,-0.4,-4,0)"
         style="stroke-width:1pt;marker-start:none;stroke:#000000;fill-rule:evenodd;fill:#000000"
         d="M 0,0 L 5,-5 L -12.5,0 L 5,5 L 0,0 z"
         id="path11941" />
    </marker>
    <marker
       style="overflow:visible"
       id="Arrow1MendvK"
       refX="0"
       refY="0"
       orient="auto"
       inkscape:stockid="Arrow1MendvK">
      <path
         transform="matrix(-0.4,0,0,-0.4,-4,0)"
         style="stroke-width:1pt;marker-start:none;stroke:#000000;fill-rule:evenodd;fill:#000000"
         d="M 0,0 L 5,-5 L -12.5,0 L 5,5 L 0,0 z"
         id="path11944" />
    </marker>
    <marker
       inkscape:stockid="Arrow1MendvK"
       orient="auto"
       refY="0"
       refX="0"
       id="Arrow1MendvK-5"
       style="overflow:visible">
      <path
         id="path11944-5"
         d="M 0,0 L 5,-5 L -12.5,0 L 5,5 L 0,0 z"
         style="stroke-width:1pt;marker-start:none;stroke:#000000;fill-rule:evenodd;fill:#000000"
         transform="matrix(-0.4,0,0,-0.4,-4,0)" />
    </marker>
    <marker
       inkscape:stockid="Arrow1Mendv9"
       orient="auto"
       refY="0"
       refX="0"
       id="Arrow1Mendv9-8"
       style="overflow:visible">
      <path
         id="path11941-5"
         d="M 0,0 L 5,-5 L -12.5,0 L 5,5 L 0,0 z"
         style="stroke-width:1pt;marker-start:none;stroke:#000000;fill-rule:evenodd;fill:#000000"
         transform="matrix(-0.4,0,0,-0.4,-4,0)" />
    </marker>
    <marker
       inkscape:stockid="Arrow1Mend80"
       orient="auto"
       refY="0"
       refX="0"
       id="Arrow1Mend80-0"
       style="overflow:visible">
      <path
         id="path11404-4"
         d="M 0,0 L 5,-5 L -12.5,0 L 5,5 L 0,0 z"
         style="stroke-width:1pt;marker-start:none;stroke:#000000;fill-rule:evenodd;fill:#000000"
         transform="matrix(-0.4,0,0,-0.4,-4,0)" />
    </marker>
    <marker
       inkscape:stockid="Arrow1Mend6sg"
       orient="auto"
       refY="0"
       refX="0"
       id="Arrow1Mend6sg-5"
       style="overflow:visible">
      <path
         id="path11401-3"
         d="M 0,0 L 5,-5 L -12.5,0 L 5,5 L 0,0 z"
         style="fill-rule:evenodd;marker-start:none;stroke:#000000;stroke-width:1pt;fill:#000000"
         transform="matrix(-0.4,0,0,-0.4,-4,0)" />
    </marker>
    <marker
       inkscape:stockid="Arrow1MstartMO"
       orient="auto"
       refY="0"
       refX="0"
       id="Arrow1MstartMO-5"
       style="overflow:visible">
      <path
         id="path11398-6"
         d="M 0,0 L 5,-5 L -12.5,0 L 5,5 L 0,0 z"
         style="fill-rule:evenodd;marker-start:none;stroke:#000000;stroke-width:1pt;fill:#000000"
         transform="matrix(0.4,0,0,0.4,4,0)" />
    </marker>
    <marker
       inkscape:stockid="Arrow1Mend1a"
       orient="auto"
       refY="0"
       refX="0"
       id="Arrow1Mend1a-9"
       style="overflow:visible">
      <path
         id="path10873-7"
         d="M 0,0 L 5,-5 L -12.5,0 L 5,5 L 0,0 z"
         style="fill-rule:evenodd;marker-start:none;stroke:#000000;stroke-width:1pt;fill:#000000"
         transform="matrix(-0.4,0,0,-0.4,-4,0)" />
    </marker>
    <marker
       inkscape:stockid="Arrow1Mend9pS"
       orient="auto"
       refY="0"
       refX="0"
       id="Arrow1Mend9pS-7"
       style="overflow:visible">
      <path
         id="path10352-2"
         d="M 0,0 L 5,-5 L -12.5,0 L 5,5 L 0,0 z"
         style="stroke-width:1pt;marker-start:none;stroke:#000000;fill-rule:evenodd;fill:#000000"
         transform="matrix(-0.4,0,0,-0.4,-4,0)" />
    </marker>
    <marker
       inkscape:stockid="Arrow1Mendne"
       orient="auto"
       refY="0"
       refX="0"
       id="Arrow1Mendne-7"
       style="overflow:visible">
      <path
         id="path9835-5"
         d="M 0,0 L 5,-5 L -12.5,0 L 5,5 L 0,0 z"
         style="stroke-width:1pt;marker-start:none;stroke:#000000;fill-rule:evenodd;fill:#000000"
         transform="matrix(-0.4,0,0,-0.4,-4,0)" />
    </marker>
    <marker
       inkscape:stockid="Arrow1MendvX"
       orient="auto"
       refY="0"
       refX="0"
       id="Arrow1MendvX-9"
       style="overflow:visible">
      <path
         id="path9832-3"
         d="M 0,0 L 5,-5 L -12.5,0 L 5,5 L 0,0 z"
         style="stroke-width:1pt;marker-start:none;stroke:#000000;fill-rule:evenodd;fill:#000000"
         transform="matrix(-0.4,0,0,-0.4,-4,0)" />
    </marker>
    <marker
       inkscape:stockid="Arrow1Mend68"
       orient="auto"
       refY="0"
       refX="0"
       id="Arrow1Mend68-0"
       style="overflow:visible">
      <path
         id="path9829-0"
         d="M 0,0 L 5,-5 L -12.5,0 L 5,5 L 0,0 z"
         style="stroke-width:1pt;marker-start:none;stroke:#000000;fill-rule:evenodd;fill:#000000"
         transform="matrix(-0.4,0,0,-0.4,-4,0)" />
    </marker>
    <marker
       inkscape:stockid="Arrow1Mend94"
       orient="auto"
       refY="0"
       refX="0"
       id="Arrow1Mend94-8"
       style="overflow:visible">
      <path
         id="path9324-4"
         d="M 0,0 L 5,-5 L -12.5,0 L 5,5 L 0,0 z"
         style="stroke-width:1pt;marker-start:none;stroke:#000000;fill-rule:evenodd;fill:#000000"
         transform="matrix(-0.4,0,0,-0.4,-4,0)" />
    </marker>
    <marker
       inkscape:stockid="Arrow1Mendj3"
       orient="auto"
       refY="0"
       refX="0"
       id="Arrow1Mendj3-4"
       style="overflow:visible">
      <path
         id="path8823-3"
         d="M 0,0 L 5,-5 L -12.5,0 L 5,5 L 0,0 z"
         style="stroke-width:1pt;marker-start:none;stroke:#000000;fill-rule:evenodd;fill:#000000"
         transform="matrix(-0.4,0,0,-0.4,-4,0)" />
    </marker>
    <marker
       inkscape:stockid="Arrow1Mend1"
       orient="auto"
       refY="0"
       refX="0"
       id="Arrow1Mend1-4"
       style="overflow:visible">
      <path
         id="path8060-6"
         d="M 0,0 L 5,-5 L -12.5,0 L 5,5 L 0,0 z"
         style="marker-start:none;stroke:#0000ff;stroke-width:1pt;fill:#0000ff;fill-rule:evenodd"
         transform="matrix(-0.4,0,0,-0.4,-4,0)" />
    </marker>
    <marker
       inkscape:stockid="Arrow1Mend6s"
       orient="auto"
       refY="0"
       refX="0"
       id="Arrow1Mend6s-4"
       style="overflow:visible">
      <path
         id="path7579-6"
         d="M 0,0 L 5,-5 L -12.5,0 L 5,5 L 0,0 z"
         style="marker-start:none;stroke:#0000ff;stroke-width:1pt;fill:#0000ff;fill-rule:evenodd"
         transform="matrix(-0.4,0,0,-0.4,-4,0)" />
    </marker>
    <marker
       inkscape:stockid="Arrow1MstartM"
       orient="auto"
       refY="0"
       refX="0"
       id="Arrow1MstartM-4"
       style="overflow:visible">
      <path
         id="path7576-0"
         d="M 0,0 L 5,-5 L -12.5,0 L 5,5 L 0,0 z"
         style="marker-start:none;stroke:#0000ff;stroke-width:1pt;fill:#0000ff;fill-rule:evenodd"
         transform="matrix(0.4,0,0,0.4,4,0)" />
    </marker>
    <marker
       inkscape:stockid="Arrow1Mendn"
       orient="auto"
       refY="0"
       refX="0"
       id="Arrow1Mendn-0"
       style="overflow:visible">
      <path
         id="path7091-8"
         d="M 0,0 L 5,-5 L -12.5,0 L 5,5 L 0,0 z"
         style="fill:#0000ff;fill-rule:evenodd;stroke:#0000ff;stroke-width:1pt;marker-start:none"
         transform="matrix(-0.4,0,0,-0.4,-4,0)" />
    </marker>
    <marker
       inkscape:stockid="Arrow1Mend8"
       orient="auto"
       refY="0"
       refX="0"
       id="Arrow1Mend8-6"
       style="overflow:visible">
      <path
         id="path7088-3"
         d="M 0,0 L 5,-5 L -12.5,0 L 5,5 L 0,0 z"
         style="fill:#0000ff;fill-rule:evenodd;stroke:#0000ff;stroke-width:1pt;marker-start:none"
         transform="matrix(-0.4,0,0,-0.4,-4,0)" />
    </marker>
    <marker
       inkscape:stockid="Arrow1Mend9p"
       orient="auto"
       refY="0"
       refX="0"
       id="Arrow1Mend9p-6"
       style="overflow:visible">
      <path
         id="path6623-3"
         d="M 0,0 L 5,-5 L -12.5,0 L 5,5 L 0,0 z"
         style="fill:#ff0000;fill-rule:evenodd;stroke:#ff0000;stroke-width:1pt;marker-start:none"
         transform="matrix(-0.4,0,0,-0.4,-4,0)" />
    </marker>
    <marker
       inkscape:stockid="Arrow1Mendv"
       orient="auto"
       refY="0"
       refX="0"
       id="Arrow1Mendv-0"
       style="overflow:visible">
      <path
         id="path5131-5"
         d="M 0,0 L 5,-5 L -12.5,0 L 5,5 L 0,0 z"
         style="fill:#ff0000;fill-rule:evenodd;stroke:#ff0000;stroke-width:1pt;marker-start:none"
         transform="matrix(-0.4,0,0,-0.4,-4,0)" />
    </marker>
    <marker
       inkscape:stockid="Arrow1Mend6"
       orient="auto"
       refY="0"
       refX="0"
       id="Arrow1Mend6-3"
       style="overflow:visible">
      <path
         id="path5128-9"
         d="M 0,0 L 5,-5 L -12.5,0 L 5,5 L 0,0 z"
         style="fill:#ff0000;fill-rule:evenodd;stroke:#ff0000;stroke-width:1pt;marker-start:none"
         transform="matrix(-0.4,0,0,-0.4,-4,0)" />
    </marker>
    <marker
       inkscape:stockid="Arrow1Mend9"
       orient="auto"
       refY="0"
       refX="0"
       id="Arrow1Mend9-9"
       style="overflow:visible">
      <path
         id="path4711-4"
         d="M 0,0 L 5,-5 L -12.5,0 L 5,5 L 0,0 z"
         style="fill:#0000ff;fill-rule:evenodd;stroke:#0000ff;stroke-width:1pt;marker-start:none"
         transform="matrix(-0.4,0,0,-0.4,-4,0)" />
    </marker>
    <marker
       inkscape:stockid="Arrow1Mendj"
       orient="auto"
       refY="0"
       refX="0"
       id="Arrow1Mendj-8"
       style="overflow:visible">
      <path
         id="path4298-5"
         d="M 0,0 L 5,-5 L -12.5,0 L 5,5 L 0,0 z"
         style="fill:#0000ff;fill-rule:evenodd;stroke:#0000ff;stroke-width:1pt;marker-start:none"
         transform="matrix(-0.4,0,0,-0.4,-4,0)" />
    </marker>
    <marker
       inkscape:stockid="Arrow1Lend"
       orient="auto"
       refY="0"
       refX="0"
       id="Arrow1Lend-6"
       style="overflow:visible">
      <path
         id="path2978-2"
         d="M 0,0 L 5,-5 L -12.5,0 L 5,5 L 0,0 z"
         style="fill-rule:evenodd;stroke:#000000;stroke-width:1pt;marker-start:none"
         transform="matrix(-0.8,0,0,-0.8,-10,0)" />
    </marker>
    <marker
       inkscape:stockid="Arrow1Mend"
       orient="auto"
       refY="0"
       refX="0"
       id="Arrow1Mend-9"
       style="overflow:visible">
      <path
         id="path2972-5"
         d="M 0,0 L 5,-5 L -12.5,0 L 5,5 L 0,0 z"
         style="fill-rule:evenodd;stroke:#000000;stroke-width:1pt;marker-start:none"
         transform="matrix(-0.4,0,0,-0.4,-4,0)" />
    </marker>
    <marker
       inkscape:stockid="Arrow1Mstart"
       orient="auto"
       refY="0"
       refX="0"
       id="Arrow1Mstart-0"
       style="overflow:visible">
      <path
         id="path3229-0"
         d="M 0,0 L 5,-5 L -12.5,0 L 5,5 L 0,0 z"
         style="fill-rule:evenodd;stroke:#000000;stroke-width:1pt;marker-start:none"
         transform="matrix(0.4,0,0,0.4,4,0)" />
    </marker>
    <inkscape:perspective
       sodipodi:type="inkscape:persp3d"
       inkscape:vp_x="0 : 372.04724 : 1"
       inkscape:vp_y="6.1230318e-14 : 1000 : 0"
       inkscape:vp_z="1052.3622 : 372.04724 : 1"
       inkscape:persp3d-origin="526.18109 : 248.03149 : 1"
       id="perspective73-6" />
    <marker
       inkscape:stockid="Arrow1Send"
       orient="auto"
       refY="0"
       refX="0"
       id="Arrow1Send-8"
       style="overflow:visible">
      <path
         id="path3269-7"
         d="M 0,0 L 5,-5 L -12.5,0 L 5,5 L 0,0 z"
         style="fill-rule:evenodd;stroke:#000000;stroke-width:1pt;marker-start:none"
         transform="matrix(-0.2,0,0,-0.2,-1.2,0)" />
    </marker>
  </defs>
  <metadata
     id="metadata7">
    <rdf:RDF>
      <cc:Work
         rdf:about="">
        <dc:format>image/svg+xml</dc:format>
        <dc:type
           rdf:resource="http://purl.org/dc/dcmitype/StillImage" />
        <dc:title></dc:title>
      </cc:Work>
    </rdf:RDF>
  </metadata>
  <g
     inkscape:label="final"
     id="layer2"
     inkscape:groupmode="layer"
     style="display:inline">
    <path
       style="fill:none;stroke:#ff0000;stroke-width:3;stroke-linecap:butt;stroke-linejoin:miter;stroke-miterlimit:4;stroke-opacity:1;stroke-dasharray:none;stroke-dashoffset:0"
       d="m 263.57209,496.09658 59.6613,0"
       id="path3564"
       inkscape:connector-curvature="0" />
    <path
       sodipodi:nodetypes="cccc"
       id="path3566"
       d="m 251.34611,496.66525 24.20924,11.21457 0,-22.51815 -24.20924,11.30358 z"
       style="fill:#ffffff;fill-opacity:1;fill-rule:evenodd;stroke:#ff0000;stroke-width:2.49212766;stroke-linecap:butt;stroke-linejoin:miter;stroke-miterlimit:4;stroke-opacity:1;stroke-dasharray:none"
       inkscape:connector-curvature="0" />
    <rect
       style="fill:#ffffff;fill-opacity:1;fill-rule:nonzero;stroke:#000000;stroke-width:3;stroke-miterlimit:4;stroke-opacity:1;stroke-dasharray:none"
       id="rect3608"
       width="188.79417"
       height="75.331291"
       x="275.75262"
       y="550.39899"
       ry="18.714287"
       rx="22.714287" />
    <path
       transform="matrix(1.7194845,0,0,1.2310461,-96.342129,-286.81428)"
       d="m 187.79951,657.96421 -25.05559,-0.11157 -12.43117,-21.75455 12.62441,-21.64299 25.05558,0.11157 12.43117,21.75455 z"
       inkscape:randomized="0"
       inkscape:rounded="0"
       inkscape:flatsided="true"
       sodipodi:arg2="1.575249"
       sodipodi:arg1="1.0516502"
       sodipodi:r2="24.146442"
       sodipodi:r1="25.05583"
       sodipodi:cy="636.20966"
       sodipodi:cx="175.36833"
       sodipodi:sides="6"
       id="path4742"
       style="fill:none;stroke:#000000;stroke-width:2.06198239;stroke-miterlimit:4;stroke-opacity:1;stroke-dasharray:none;stroke-dashoffset:0"
       sodipodi:type="star" />
    <text
       id="text4744"
       y="505.41208"
       x="204.78806"
       style="font-size:12px;font-style:normal;font-weight:normal;fill:#000000;fill-opacity:1;stroke:#000000;stroke-width:1px;stroke-linecap:butt;stroke-linejoin:miter;stroke-opacity:1;font-family:Bitstream Vera Sans"
       xml:space="preserve"><tspan
         id="tspan4746"
         style="font-size:24px;font-weight:normal;text-align:center;text-anchor:middle;fill:#000000;fill-opacity:1;stroke:none"
         y="505.41208"
         x="204.78806"
         sodipodi:role="line">LTP</tspan></text>
    <text
       xml:space="preserve"
       style="font-size:12px;font-style:normal;font-weight:normal;fill:#000000;fill-opacity:1;stroke:#000000;stroke-width:1px;stroke-linecap:butt;stroke-linejoin:miter;stroke-opacity:1;font-family:Bitstream Vera Sans"
       x="366.23007"
       y="597.1394"
       id="text2507"><tspan
         sodipodi:role="line"
         x="366.23007"
         y="597.1394"
         style="font-size:24px;font-weight:normal;text-align:center;text-anchor:middle;stroke:none"
         id="tspan2509">GluR</tspan></text>
    <text
       id="text4135"
       y="353.40051"
       x="472.82852"
       style="font-size:12px;font-style:normal;font-variant:normal;font-weight:normal;font-stretch:normal;fill:#000000;fill-opacity:1;stroke:#000000;stroke-width:1px;stroke-linecap:butt;stroke-linejoin:miter;stroke-opacity:1;font-family:cmex10;-inkscape-font-specification:cmex10"
       xml:space="preserve"><tspan
         y="353.40051"
         x="472.82852"
         id="tspan4137"
         sodipodi:role="line" /></text>
    <rect
       rx="13.558826"
       ry="13.891436"
       y="433.35614"
       x="302.61493"
       height="28.15498"
       width="45.907963"
       id="rect3390"
       style="fill:#ffffff;fill-opacity:1;fill-rule:nonzero;stroke:#000000;stroke-width:3;stroke-miterlimit:4;stroke-opacity:1;stroke-dasharray:none" />
    <path
       id="path3396"
       d="m 326.45987,462.05239 0,68.06096"
       style="fill:none;stroke:#000000;stroke-width:3;stroke-linecap:butt;stroke-linejoin:miter;stroke-miterlimit:4;stroke-opacity:1;stroke-dasharray:none;marker-end:url(#Arrow1Mendj3)"
       inkscape:connector-curvature="0" />
    <path
       transform="translate(-162.01942,379.5885)"
       d="m 493.49793,117.1012 a 5.0186229,5.0186229 0 1 1 -10.03724,0 5.0186229,5.0186229 0 1 1 10.03724,0 z"
       sodipodi:ry="5.0186229"
       sodipodi:rx="5.0186229"
       sodipodi:cy="117.1012"
       sodipodi:cx="488.47931"
       id="path3398"
       style="fill:#000000;fill-opacity:1;fill-rule:nonzero;stroke:#000000;stroke-width:3;stroke-miterlimit:4;stroke-opacity:1;stroke-dasharray:none;stroke-dashoffset:0"
       sodipodi:type="arc" />
    <text
       xml:space="preserve"
       style="font-size:16px;font-style:normal;font-weight:normal;fill:#000000;fill-opacity:1;stroke:#000000;stroke-width:1px;stroke-linecap:butt;stroke-linejoin:miter;stroke-opacity:1;font-family:Bitstream Vera Sans"
       x="326.64301"
       y="453.51562"
       id="text3400"><tspan
         sodipodi:role="line"
         x="326.64301"
         y="453.51562"
         style="font-size:16px;font-weight:normal;text-align:center;text-anchor:middle;fill:#000000;fill-opacity:1;stroke:none"
         id="tspan3402">PSD</tspan></text>
    <text
       id="text5523"
       y="287.62531"
       x="452.31366"
       style="font-size:12px;font-style:normal;font-variant:normal;font-weight:normal;font-stretch:normal;fill:#000000;fill-opacity:1;stroke:#000000;stroke-width:1px;stroke-linecap:butt;stroke-linejoin:miter;stroke-opacity:1;font-family:Courier;-inkscape-font-specification:Courier"
       xml:space="preserve"><tspan
         y="287.62531"
         x="452.31366"
         id="tspan5525"
         sodipodi:role="line" /></text>
    <g
       id="g5232"
       transform="translate(170.83938,-45.95454)">
      <path
         transform="translate(-331.75714,423.32831)"
         d="m 501.07676,171.92538 c 0,7.64359 -6.19636,13.83994 -13.83994,13.83994 -7.64359,0 -13.83994,-6.19635 -13.83994,-13.83994 0,-7.64358 6.19635,-13.83993 13.83994,-13.83993 7.64358,0 13.83994,6.19635 13.83994,13.83993 z"
         sodipodi:ry="13.839939"
         sodipodi:rx="13.839939"
         sodipodi:cy="171.92538"
         sodipodi:cx="487.23682"
         id="path4451"
         style="fill:#ffffff;fill-opacity:1;fill-rule:nonzero;stroke:#000000;stroke-width:3;stroke-miterlimit:4;stroke-opacity:1;stroke-dasharray:none;stroke-dashoffset:0"
         sodipodi:type="arc" />
      <path
         sodipodi:nodetypes="cc"
         style="fill:none;stroke:#000000;stroke-width:2.66452169;stroke-linecap:butt;stroke-linejoin:miter;stroke-miterlimit:4;stroke-opacity:1;stroke-dasharray:none"
         d="M 164.55077,604.64898 153.23304,593.21693"
         id="path4453"
         inkscape:connector-curvature="0" />
      <path
         sodipodi:nodetypes="cc"
         id="path2645"
         d="m 162.47192,583.46105 -19.23197,18.35277"
         style="fill:none;stroke:#000000;stroke-width:2.66452169;stroke-linecap:butt;stroke-linejoin:miter;stroke-miterlimit:4;stroke-opacity:1;stroke-dasharray:none"
         inkscape:connector-curvature="0" />
    </g>
  </g>
</svg>
