<?xml version="1.0" encoding="UTF-8" standalone="no"?>
<svg
   xmlns:dc="http://purl.org/dc/elements/1.1/"
   xmlns:cc="http://creativecommons.org/ns#"
   xmlns:rdf="http://www.w3.org/1999/02/22-rdf-syntax-ns#"
   xmlns:svg="http://www.w3.org/2000/svg"
   xmlns="http://www.w3.org/2000/svg"
   xmlns:xlink="http://www.w3.org/1999/xlink"
   xmlns:sodipodi="http://sodipodi.sourceforge.net/DTD/sodipodi-0.dtd"
   xmlns:inkscape="http://www.inkscape.org/namespaces/inkscape"
   fill-opacity="1"
   color-rendering="auto"
   color-interpolation="auto"
   stroke="black"
   text-rendering="auto"
   stroke-linecap="square"
   width="462"
   stroke-miterlimit="10"
   stroke-opacity="1"
   shape-rendering="auto"
   fill="black"
   stroke-dasharray="none"
   font-weight="normal"
   stroke-width="1"
   height="362"
   font-family="'Dialog'"
   font-style="normal"
   stroke-linejoin="miter"
   font-size="12"
   stroke-dashoffset="0"
   image-rendering="auto"
   id="svg2"
   version="1.1"
   inkscape:version="0.48.2 r9819"
   sodipodi:docname="rtk-entities.svg"
   inkscape:export-filename="/Users/asorokin/Documents/Projects/Notation/sbgn-code/EntityRelationship/trunk/examples/rtk-entities.png"
   inkscape:export-xdpi="300"
   inkscape:export-ydpi="300">
  <metadata
     id="metadata401">
    <rdf:RDF>
      <cc:Work
         rdf:about="">
        <dc:format>image/svg+xml</dc:format>
        <dc:type
           rdf:resource="http://purl.org/dc/dcmitype/StillImage" />
        <dc:title></dc:title>
      </cc:Work>
    </rdf:RDF>
  </metadata>
  <sodipodi:namedview
     pagecolor="#ffffff"
     bordercolor="#666666"
     borderopacity="1"
     objecttolerance="10"
     gridtolerance="10"
     guidetolerance="10"
     inkscape:pageopacity="0"
     inkscape:pageshadow="2"
     inkscape:window-width="1280"
     inkscape:window-height="704"
     id="namedview399"
     showgrid="false"
     inkscape:zoom="1.3425414"
     inkscape:cx="140.87243"
     inkscape:cy="181"
     inkscape:window-x="0"
     inkscape:window-y="0"
     inkscape:window-maximized="0"
     inkscape:current-layer="layer1">
    <inkscape:grid
       type="xygrid"
       id="grid8242" />
  </sodipodi:namedview>
  <!--Generated by the Batik Graphics2D SVG Generator-->
  <defs
     id="genericDefs">
    <linearGradient
       id="linearGradient8220">
      <stop
         style="stop-color:#f7efdb;stop-opacity:1;"
         offset="0"
         id="stop8222" />
      <stop
         id="stop8240"
         offset="0.66350979"
         style="stop-color:#f9f3e5;stop-opacity:0.62352941;" />
      <stop
         style="stop-color:#fcf8f0;stop-opacity:0.25098041;"
         offset="1"
         id="stop8224" />
    </linearGradient>
    <linearGradient
       id="linearGradient6743">
      <stop
         style="stop-color:#c5e0f7;stop-opacity:1;"
         offset="0"
         id="stop6745" />
      <stop
         style="stop-color:#ffffff;stop-opacity:0.49803922;"
         offset="1"
         id="stop6747" />
    </linearGradient>
    <defs
       id="defs1">
      <clipPath
         id="clipPath1"
         clipPathUnits="userSpaceOnUse">
        <path
           id="path9"
           d="M0 0 L591 0 L591 548 L0 548 L0 0 Z" />
      </clipPath>
      <clipPath
         id="clipPath2"
         clipPathUnits="userSpaceOnUse">
        <path
           id="path12"
           d="M0 0 L0 105 L283 105 L283 0 Z" />
      </clipPath>
      <clipPath
         id="clipPath3"
         clipPathUnits="userSpaceOnUse">
        <path
           id="path15"
           d="M0 0 L0 20 L39 20 L39 0 Z" />
      </clipPath>
      <clipPath
         id="clipPath4"
         clipPathUnits="userSpaceOnUse">
        <path
           id="path18"
           d="M0 0 L0 19 L38 19 L38 0 Z" />
      </clipPath>
      <clipPath
         id="clipPath5"
         clipPathUnits="userSpaceOnUse">
        <path
           id="path21"
           d="M0 0 L0 18 L30 18 L30 0 Z" />
      </clipPath>
      <clipPath
         id="clipPath6"
         clipPathUnits="userSpaceOnUse">
        <path
           id="path24"
           d="M0 0 L0 17 L29 17 L29 0 Z" />
      </clipPath>
      <clipPath
         id="clipPath7"
         clipPathUnits="userSpaceOnUse">
        <path
           id="path27"
           d="M0 0 L0 19 L32 19 L32 0 Z" />
      </clipPath>
      <clipPath
         id="clipPath8"
         clipPathUnits="userSpaceOnUse">
        <path
           id="path30"
           d="M0 0 L0 18 L31 18 L31 0 Z" />
      </clipPath>
      <clipPath
         id="clipPath9"
         clipPathUnits="userSpaceOnUse">
        <path
           id="path33"
           d="M0 0 L0 63 L59 63 L59 0 Z" />
      </clipPath>
      <clipPath
         id="clipPath10"
         clipPathUnits="userSpaceOnUse">
        <path
           id="path36"
           d="M0 0 L0 20 L52 20 L52 0 Z" />
      </clipPath>
      <clipPath
         id="clipPath11"
         clipPathUnits="userSpaceOnUse">
        <path
           id="path39"
           d="M0 0 L0 19 L51 19 L51 0 Z" />
      </clipPath>
      <clipPath
         id="clipPath12"
         clipPathUnits="userSpaceOnUse">
        <path
           id="path42"
           d="M0 0 L0 18 L44 18 L44 0 Z" />
      </clipPath>
      <clipPath
         id="clipPath13"
         clipPathUnits="userSpaceOnUse">
        <path
           id="path45"
           d="M0 0 L0 17 L43 17 L43 0 Z" />
      </clipPath>
      <clipPath
         id="clipPath14"
         clipPathUnits="userSpaceOnUse">
        <path
           id="path48"
           d="M0 0 L0 20 L64 20 L64 0 Z" />
      </clipPath>
      <clipPath
         id="clipPath15"
         clipPathUnits="userSpaceOnUse">
        <path
           id="path51"
           d="M0 0 L0 19 L63 19 L63 0 Z" />
      </clipPath>
      <clipPath
         id="clipPath16"
         clipPathUnits="userSpaceOnUse">
        <path
           id="path54"
           d="M0 0 L0 49 L45 49 L45 0 Z" />
      </clipPath>
      <clipPath
         id="clipPath17"
         clipPathUnits="userSpaceOnUse">
        <path
           id="path57"
           d="M0 0 L0 20 L19 20 L19 0 Z" />
      </clipPath>
      <clipPath
         id="clipPath18"
         clipPathUnits="userSpaceOnUse">
        <path
           id="path60"
           d="M0 0 L0 19 L18 19 L18 0 Z" />
      </clipPath>
      <clipPath
         id="clipPath19"
         clipPathUnits="userSpaceOnUse">
        <path
           id="path63"
           d="M0 0 L0 25 L25 25 L25 0 Z" />
      </clipPath>
      <clipPath
         id="clipPath20"
         clipPathUnits="userSpaceOnUse">
        <path
           id="path66"
           d="M0 0 L0 17 L19 17 L19 0 Z" />
      </clipPath>
      <clipPath
         id="clipPath21"
         clipPathUnits="userSpaceOnUse">
        <path
           id="path69"
           d="M0 0 L0 16 L18 16 L18 0 Z" />
      </clipPath>
      <clipPath
         id="clipPath22"
         clipPathUnits="userSpaceOnUse">
        <path
           id="path72"
           d="M0 0 L0 17 L18 17 L18 0 Z" />
      </clipPath>
      <clipPath
         id="clipPath23"
         clipPathUnits="userSpaceOnUse">
        <path
           id="path75"
           d="M0 0 L0 16 L17 16 L17 0 Z" />
      </clipPath>
      <clipPath
         id="clipPath24"
         clipPathUnits="userSpaceOnUse">
        <path
           id="path78"
           d="M0 0 L0 17 L17 17 L17 0 Z" />
      </clipPath>
      <clipPath
         id="clipPath25"
         clipPathUnits="userSpaceOnUse">
        <path
           id="path81"
           d="M0 0 L0 4 L4 4 L4 0 Z" />
      </clipPath>
      <clipPath
         id="clipPath26"
         clipPathUnits="userSpaceOnUse">
        <path
           id="path84"
           d="M0 0 L0 43 L19 43 L19 0 Z" />
      </clipPath>
      <clipPath
         id="clipPath27"
         clipPathUnits="userSpaceOnUse">
        <path
           id="path87"
           d="M0 0 L0 34 L19 34 L19 0 Z" />
      </clipPath>
      <clipPath
         id="clipPath28"
         clipPathUnits="userSpaceOnUse">
        <path
           id="path90"
           d="M0 0 L0 24 L19 24 L19 0 Z" />
      </clipPath>
      <clipPath
         id="clipPath29"
         clipPathUnits="userSpaceOnUse">
        <path
           id="path93"
           d="M0 0 L0 35 L5 35 L5 0 Z" />
      </clipPath>
      <clipPath
         id="clipPath30"
         clipPathUnits="userSpaceOnUse">
        <path
           id="path96"
           d="M0 0 L0 17 L82 17 L82 0 Z" />
      </clipPath>
      <clipPath
         id="clipPath31"
         clipPathUnits="userSpaceOnUse">
        <path
           id="path99"
           d="M0 0 L0 18 L29 18 L29 0 Z" />
      </clipPath>
      <clipPath
         id="clipPath32"
         clipPathUnits="userSpaceOnUse">
        <path
           id="path102"
           d="M0 0 L0 17 L28 17 L28 0 Z" />
      </clipPath>
      <clipPath
         id="clipPath33"
         clipPathUnits="userSpaceOnUse">
        <path
           id="path105"
           d="M0 0 L0 74 L86 74 L86 0 Z" />
      </clipPath>
      <clipPath
         id="clipPath34"
         clipPathUnits="userSpaceOnUse">
        <path
           id="path108"
           d="M0 0 L0 26 L120 26 L120 0 Z" />
      </clipPath>
      <clipPath
         id="clipPath35"
         clipPathUnits="userSpaceOnUse">
        <path
           id="path111"
           d="M0 0 L0 101 L222 101 L222 0 Z" />
      </clipPath>
      <clipPath
         id="clipPath36"
         clipPathUnits="userSpaceOnUse">
        <path
           id="path114"
           d="M0 0 L0 14 L5 14 L5 0 Z" />
      </clipPath>
      <clipPath
         id="clipPath37"
         clipPathUnits="userSpaceOnUse">
        <path
           id="path117"
           d="M0 0 L0 37 L19 37 L19 0 Z" />
      </clipPath>
      <clipPath
         id="clipPath38"
         clipPathUnits="userSpaceOnUse">
        <path
           id="path120"
           d="M0 0 L0 20 L5 20 L5 0 Z" />
      </clipPath>
      <clipPath
         id="clipPath39"
         clipPathUnits="userSpaceOnUse">
        <path
           id="path123"
           d="M0 0 L0 40 L19 40 L19 0 Z" />
      </clipPath>
      <clipPath
         id="clipPath40"
         clipPathUnits="userSpaceOnUse">
        <path
           id="path126"
           d="M0 0 L0 294 L278 294 L278 0 Z" />
      </clipPath>
      <clipPath
         id="clipPath41"
         clipPathUnits="userSpaceOnUse">
        <path
           id="path129"
           d="M0 0 L0 22 L5 22 L5 0 Z" />
      </clipPath>
      <clipPath
         id="clipPath42"
         clipPathUnits="userSpaceOnUse">
        <path
           id="path132"
           d="M0 0 L0 38 L19 38 L19 0 Z" />
      </clipPath>
      <clipPath
         id="clipPath43"
         clipPathUnits="userSpaceOnUse">
        <path
           id="path135"
           d="M0 0 L0 179 L108 179 L108 0 Z" />
      </clipPath>
    </defs>
    <defs
       id="defs1-8">
      <clipPath
         id="clipPath1-8"
         clipPathUnits="userSpaceOnUse">
        <path
           id="path4866"
           d="M 0,0 591,0 591,548 0,548 0,0 z"
           inkscape:connector-curvature="0" />
      </clipPath>
      <clipPath
         id="clipPath2-9"
         clipPathUnits="userSpaceOnUse">
        <path
           id="path4869"
           d="m 0,0 0,105 283,0 0,-105 z"
           inkscape:connector-curvature="0" />
      </clipPath>
      <clipPath
         id="clipPath3-9"
         clipPathUnits="userSpaceOnUse">
        <path
           id="path4872"
           d="M 0,0 0,20 39,20 39,0 z"
           inkscape:connector-curvature="0" />
      </clipPath>
      <clipPath
         id="clipPath4-3"
         clipPathUnits="userSpaceOnUse">
        <path
           id="path4875"
           d="M 0,0 0,19 38,19 38,0 z"
           inkscape:connector-curvature="0" />
      </clipPath>
      <clipPath
         id="clipPath5-7"
         clipPathUnits="userSpaceOnUse">
        <path
           id="path4878"
           d="M 0,0 0,18 30,18 30,0 z"
           inkscape:connector-curvature="0" />
      </clipPath>
      <clipPath
         id="clipPath6-2"
         clipPathUnits="userSpaceOnUse">
        <path
           id="path4881"
           d="M 0,0 0,17 29,17 29,0 z"
           inkscape:connector-curvature="0" />
      </clipPath>
      <clipPath
         id="clipPath7-3"
         clipPathUnits="userSpaceOnUse">
        <path
           id="path4884"
           d="M 0,0 0,19 32,19 32,0 z"
           inkscape:connector-curvature="0" />
      </clipPath>
      <clipPath
         id="clipPath8-8"
         clipPathUnits="userSpaceOnUse">
        <path
           id="path4887"
           d="M 0,0 0,18 31,18 31,0 z"
           inkscape:connector-curvature="0" />
      </clipPath>
      <clipPath
         id="clipPath9-3"
         clipPathUnits="userSpaceOnUse">
        <path
           id="path4890"
           d="M 0,0 0,63 59,63 59,0 z"
           inkscape:connector-curvature="0" />
      </clipPath>
      <clipPath
         id="clipPath10-5"
         clipPathUnits="userSpaceOnUse">
        <path
           id="path4893"
           d="M 0,0 0,20 52,20 52,0 z"
           inkscape:connector-curvature="0" />
      </clipPath>
      <clipPath
         id="clipPath11-1"
         clipPathUnits="userSpaceOnUse">
        <path
           id="path4896"
           d="M 0,0 0,19 51,19 51,0 z"
           inkscape:connector-curvature="0" />
      </clipPath>
      <clipPath
         id="clipPath12-5"
         clipPathUnits="userSpaceOnUse">
        <path
           id="path4899"
           d="M 0,0 0,18 44,18 44,0 z"
           inkscape:connector-curvature="0" />
      </clipPath>
      <clipPath
         id="clipPath13-4"
         clipPathUnits="userSpaceOnUse">
        <path
           id="path4902"
           d="M 0,0 0,17 43,17 43,0 z"
           inkscape:connector-curvature="0" />
      </clipPath>
      <clipPath
         id="clipPath14-2"
         clipPathUnits="userSpaceOnUse">
        <path
           id="path4905"
           d="M 0,0 0,20 64,20 64,0 z"
           inkscape:connector-curvature="0" />
      </clipPath>
      <clipPath
         id="clipPath15-2"
         clipPathUnits="userSpaceOnUse">
        <path
           id="path4908"
           d="M 0,0 0,19 63,19 63,0 z"
           inkscape:connector-curvature="0" />
      </clipPath>
      <clipPath
         id="clipPath16-9"
         clipPathUnits="userSpaceOnUse">
        <path
           id="path4911"
           d="M 0,0 0,49 45,49 45,0 z"
           inkscape:connector-curvature="0" />
      </clipPath>
      <clipPath
         id="clipPath17-1"
         clipPathUnits="userSpaceOnUse">
        <path
           id="path4914"
           d="M 0,0 0,20 19,20 19,0 z"
           inkscape:connector-curvature="0" />
      </clipPath>
      <clipPath
         id="clipPath18-5"
         clipPathUnits="userSpaceOnUse">
        <path
           id="path4917"
           d="M 0,0 0,19 18,19 18,0 z"
           inkscape:connector-curvature="0" />
      </clipPath>
      <clipPath
         id="clipPath19-8"
         clipPathUnits="userSpaceOnUse">
        <path
           id="path4920"
           d="M 0,0 0,25 25,25 25,0 z"
           inkscape:connector-curvature="0" />
      </clipPath>
      <clipPath
         id="clipPath20-8"
         clipPathUnits="userSpaceOnUse">
        <path
           id="path4923"
           d="M 0,0 0,17 19,17 19,0 z"
           inkscape:connector-curvature="0" />
      </clipPath>
      <clipPath
         id="clipPath21-0"
         clipPathUnits="userSpaceOnUse">
        <path
           id="path4926"
           d="M 0,0 0,16 18,16 18,0 z"
           inkscape:connector-curvature="0" />
      </clipPath>
      <clipPath
         id="clipPath22-4"
         clipPathUnits="userSpaceOnUse">
        <path
           id="path4929"
           d="M 0,0 0,17 18,17 18,0 z"
           inkscape:connector-curvature="0" />
      </clipPath>
      <clipPath
         id="clipPath23-0"
         clipPathUnits="userSpaceOnUse">
        <path
           id="path4932"
           d="M 0,0 0,16 17,16 17,0 z"
           inkscape:connector-curvature="0" />
      </clipPath>
      <clipPath
         id="clipPath24-8"
         clipPathUnits="userSpaceOnUse">
        <path
           id="path4935"
           d="M 0,0 0,17 17,17 17,0 z"
           inkscape:connector-curvature="0" />
      </clipPath>
      <clipPath
         id="clipPath25-5"
         clipPathUnits="userSpaceOnUse">
        <path
           id="path4938"
           d="M 0,0 0,4 4,4 4,0 z"
           inkscape:connector-curvature="0" />
      </clipPath>
      <clipPath
         id="clipPath26-5"
         clipPathUnits="userSpaceOnUse">
        <path
           id="path4941"
           d="M 0,0 0,43 19,43 19,0 z"
           inkscape:connector-curvature="0" />
      </clipPath>
      <clipPath
         id="clipPath27-9"
         clipPathUnits="userSpaceOnUse">
        <path
           id="path4944"
           d="m 0,0 0,294 278,0 0,-294 z"
           inkscape:connector-curvature="0" />
      </clipPath>
      <clipPath
         id="clipPath28-5"
         clipPathUnits="userSpaceOnUse">
        <path
           id="path4947"
           d="M 0,0 0,34 19,34 19,0 z"
           inkscape:connector-curvature="0" />
      </clipPath>
      <clipPath
         id="clipPath29-7"
         clipPathUnits="userSpaceOnUse">
        <path
           id="path4950"
           d="M 0,0 0,40 19,40 19,0 z"
           inkscape:connector-curvature="0" />
      </clipPath>
      <clipPath
         id="clipPath30-7"
         clipPathUnits="userSpaceOnUse">
        <path
           id="path4953"
           d="M 0,0 0,35 5,35 5,0 z"
           inkscape:connector-curvature="0" />
      </clipPath>
      <clipPath
         id="clipPath31-3"
         clipPathUnits="userSpaceOnUse">
        <path
           id="path4956"
           d="M 0,0 0,37 19,37 19,0 z"
           inkscape:connector-curvature="0" />
      </clipPath>
      <clipPath
         id="clipPath32-7"
         clipPathUnits="userSpaceOnUse">
        <path
           id="path4959"
           d="M 0,0 0,20 5,20 5,0 z"
           inkscape:connector-curvature="0" />
      </clipPath>
      <clipPath
         id="clipPath33-6"
         clipPathUnits="userSpaceOnUse">
        <path
           id="path4962"
           d="M 0,0 0,22 5,22 5,0 z"
           inkscape:connector-curvature="0" />
      </clipPath>
      <clipPath
         id="clipPath34-4"
         clipPathUnits="userSpaceOnUse">
        <path
           id="path4965"
           d="M 0,0 0,24 19,24 19,0 z"
           inkscape:connector-curvature="0" />
      </clipPath>
      <clipPath
         id="clipPath35-3"
         clipPathUnits="userSpaceOnUse">
        <path
           id="path4968"
           d="M 0,0 0,38 19,38 19,0 z"
           inkscape:connector-curvature="0" />
      </clipPath>
      <clipPath
         id="clipPath36-5"
         clipPathUnits="userSpaceOnUse">
        <path
           id="path4971"
           d="M 0,0 0,14 5,14 5,0 z"
           inkscape:connector-curvature="0" />
      </clipPath>
      <clipPath
         id="clipPath37-4"
         clipPathUnits="userSpaceOnUse">
        <path
           id="path4974"
           d="m 0,0 0,101 222,0 0,-101 z"
           inkscape:connector-curvature="0" />
      </clipPath>
      <clipPath
         id="clipPath38-5"
         clipPathUnits="userSpaceOnUse">
        <path
           id="path4977"
           d="M 0,0 0,18 40,18 40,0 z"
           inkscape:connector-curvature="0" />
      </clipPath>
      <clipPath
         id="clipPath39-6"
         clipPathUnits="userSpaceOnUse">
        <path
           id="path4980"
           d="M 0,0 0,17 39,17 39,0 z"
           inkscape:connector-curvature="0" />
      </clipPath>
      <clipPath
         id="clipPath40-9"
         clipPathUnits="userSpaceOnUse">
        <path
           id="path4983"
           d="m 0,0 0,179 108,0 0,-179 z"
           inkscape:connector-curvature="0" />
      </clipPath>
      <clipPath
         id="clipPath41-4"
         clipPathUnits="userSpaceOnUse">
        <path
           id="path4986"
           d="M 0,0 0,17 82,17 82,0 z"
           inkscape:connector-curvature="0" />
      </clipPath>
      <clipPath
         id="clipPath42-3"
         clipPathUnits="userSpaceOnUse">
        <path
           id="path4989"
           d="M 0,0 0,18 29,18 29,0 z"
           inkscape:connector-curvature="0" />
      </clipPath>
      <clipPath
         id="clipPath43-6"
         clipPathUnits="userSpaceOnUse">
        <path
           id="path4992"
           d="M 0,0 0,17 28,17 28,0 z"
           inkscape:connector-curvature="0" />
      </clipPath>
      <clipPath
         id="clipPath44"
         clipPathUnits="userSpaceOnUse">
        <path
           id="path4995"
           d="M 0,0 0,74 86,74 86,0 z"
           inkscape:connector-curvature="0" />
      </clipPath>
      <clipPath
         id="clipPath45"
         clipPathUnits="userSpaceOnUse">
        <path
           id="path4998"
           d="m 0,0 0,26 120,0 0,-26 z"
           inkscape:connector-curvature="0" />
      </clipPath>
    </defs>
    <linearGradient
       inkscape:collect="always"
       xlink:href="#linearGradient6743"
       id="linearGradient6753"
       x1="0"
       y1="23"
       x2="42"
       y2="23"
       gradientUnits="userSpaceOnUse"
       spreadMethod="repeat" />
    <linearGradient
       inkscape:collect="always"
       xlink:href="#linearGradient6743"
       id="linearGradient6761"
       x1="0"
       y1="51"
       x2="280"
       y2="51"
       gradientUnits="userSpaceOnUse" />
    <linearGradient
       inkscape:collect="always"
       xlink:href="#linearGradient6743"
       id="linearGradient6769"
       x1="0"
       y1="30"
       x2="56"
       y2="30"
       gradientUnits="userSpaceOnUse" />
    <linearGradient
       inkscape:collect="always"
       xlink:href="#linearGradient6743"
       id="linearGradient6777"
       x1="0"
       y1="30"
       x2="56"
       y2="30"
       gradientUnits="userSpaceOnUse" />
    <linearGradient
       inkscape:collect="always"
       xlink:href="#linearGradient8220"
       id="linearGradient8228"
       x1="227.86342"
       y1="361.25513"
       x2="227.86342"
       y2="5.9322853"
       gradientUnits="userSpaceOnUse"
       gradientTransform="translate(0,-2)" />
    <linearGradient
       inkscape:collect="always"
       xlink:href="#linearGradient6743"
       id="linearGradient8232"
       gradientUnits="userSpaceOnUse"
       spreadMethod="repeat"
       x1="2.9794238"
       y1="43.855968"
       x2="38.672932"
       y2="4.9894753" />
    <linearGradient
       inkscape:collect="always"
       xlink:href="#linearGradient6743"
       id="linearGradient8234"
       gradientUnits="userSpaceOnUse"
       x1="1.4897119"
       y1="99.415634"
       x2="270.31686"
       y2="-4.8641977" />
    <linearGradient
       inkscape:collect="always"
       xlink:href="#linearGradient6743"
       id="linearGradient8236"
       gradientUnits="userSpaceOnUse"
       x1="16.386831"
       y1="18.82716"
       x2="49.296295"
       y2="51.600822" />
    <linearGradient
       inkscape:collect="always"
       xlink:href="#linearGradient6743"
       id="linearGradient8238"
       gradientUnits="userSpaceOnUse"
       x1="19.366255"
       y1="15.847736"
       x2="50.041153"
       y2="53.835392" />
    <linearGradient
       inkscape:collect="always"
       xlink:href="#linearGradient6743"
       id="linearGradient8253"
       gradientUnits="userSpaceOnUse"
       x1="0"
       y1="30"
       x2="56"
       y2="30" />
  </defs>
  <g
     inkscape:groupmode="layer"
     id="layer1"
     inkscape:label="entities"
     style="display:inline">
    <rect
       style="opacity:0.78399999;fill:url(#linearGradient8228);fill-opacity:1;fill-rule:nonzero;stroke:none;display:inline"
       id="rect6779"
       width="461.06586"
       height="362"
       x="2.2345679"
       y="1.7242799"
       rx="5"
       ry="5" />
    <g
       style="fill:url(#linearGradient6761);fill-opacity:1;stroke:#419ae6;stroke-width:2;stroke-linecap:round;stroke-linejoin:round;display:inline;font-family:sans-serif;stroke-opacity:1"
       id="g137"
       image-rendering="optimizeQuality"
       text-rendering="optimizeLegibility"
       transform="translate(94,132)">
      <path
         style="fill:url(#linearGradient6761);fill-opacity:1;stroke:#419ae6;stroke-opacity:1"
         inkscape:connector-curvature="0"
         id="path139"
         clip-path="url(#clipPath2)"
         d="m 1,8.5 0,85 c 0,4.1421 3.3579,7.5 7.5,7.5 l 263,0 c 4.1422,0 7.5,-3.3579 7.5,-7.5 l 0,-85 C 279,4.3579 275.6422,1 271.5,1 L 8.5,1 C 4.3579,1 1,4.3579 1,8.5 z" />
      <path
         style="fill:url(#linearGradient8234);fill-opacity:1;stroke:#419ae6;stroke-opacity:1"
         inkscape:connector-curvature="0"
         id="path141"
         clip-path="url(#clipPath2)"
         d="m 1,8.5 0,85 c 0,4.1421 3.3579,7.5 7.5,7.5 l 263,0 c 4.1422,0 7.5,-3.3579 7.5,-7.5 l 0,-85 C 279,4.3579 275.6422,1 271.5,1 L 8.5,1 C 4.3579,1 1,4.3579 1,8.5 z" />
    </g>
    <g
       style="font-size:14px;display:inline;font-family:Arial"
       id="g143"
       image-rendering="optimizeQuality"
       transform="translate(215,136)"
       font-size="14"
       text-rendering="geometricPrecision">
      <text
         style="stroke:none"
         id="text145"
         clip-path="url(#clipPath4)"
         y="14"
         x="5"
         xml:space="preserve">RTK</text>
    </g>
    <g
       style="font-size:10px;fill:#ffffff;stroke:#419ae6;stroke-width:2;display:inline;font-family:Arial;stroke-opacity:1"
       id="g147"
       image-rendering="optimizeQuality"
       text-rendering="optimizeLegibility"
       transform="translate(290,225)"
       font-size="10">
      <rect
         style="stroke:#419ae6;stroke-opacity:1"
         id="rect149"
         height="14"
         ry="7"
         rx="7"
         width="26"
         clip-path="url(#clipPath6)"
         y="1.5"
         x="1.5" />
      <rect
         style="fill:none;stroke:#419ae6;stroke-opacity:1"
         id="rect151"
         height="14"
         ry="7"
         rx="7"
         width="26"
         clip-path="url(#clipPath6)"
         y="1.5"
         x="1.5" />
    </g>
    <g
       style="font-size:10px;stroke-width:2;display:inline;font-family:Arial"
       id="g153"
       image-rendering="optimizeQuality"
       text-rendering="geometricPrecision"
       transform="translate(290,225)"
       font-size="10">
      <text
         style="stroke:none"
         id="text155"
         clip-path="url(#clipPath6)"
         y="12"
         x="8"
         xml:space="preserve">Y1</text>
    </g>
    <g
       style="fill:#ffffff;stroke:#419ae6;stroke-width:2;display:inline;font-family:Arial;stroke-opacity:1"
       id="g157"
       image-rendering="optimizeQuality"
       text-rendering="optimizeLegibility"
       transform="translate(148,225)">
      <rect
         style="stroke:#419ae6;stroke-opacity:1"
         id="rect159"
         height="15"
         ry="7.5"
         rx="7.5"
         width="28"
         clip-path="url(#clipPath8)"
         y="1.5"
         x="1.5" />
      <rect
         style="fill:none;stroke:#419ae6;stroke-opacity:1"
         id="rect161"
         height="15"
         ry="7.5"
         rx="7.5"
         width="28"
         clip-path="url(#clipPath8)"
         y="1.5"
         x="1.5" />
    </g>
    <g
       style="stroke-width:2;display:inline;font-family:Arial"
       id="g163"
       image-rendering="optimizeQuality"
       transform="translate(148,225)"
       text-rendering="geometricPrecision">
      <text
         style="stroke:none"
         id="text165"
         clip-path="url(#clipPath8)"
         y="13"
         x="8"
         xml:space="preserve">Y2</text>
    </g>
    <g
       style="fill:url(#linearGradient6777);fill-opacity:1;stroke:#419ae6;stroke-width:2;stroke-linecap:round;stroke-linejoin:round;display:inline;font-family:sans-serif;stroke-opacity:1"
       id="g167"
       image-rendering="optimizeQuality"
       text-rendering="optimizeLegibility"
       transform="translate(122,159)">
      <path
         style="fill:url(#linearGradient6777);fill-opacity:1;stroke:#419ae6;stroke-opacity:1"
         inkscape:connector-curvature="0"
         id="path169"
         clip-path="url(#clipPath9)"
         d="m 1,8.5 0,43 C 1,55.6421 4.3579,59 8.5,59 l 39,0 c 4.1421,0 7.5,-3.3579 7.5,-7.5 l 0,-43 C 55,4.3579 51.6421,1 47.5,1 L 8.5,1 C 4.3579,1 1,4.3579 1,8.5 z" />
      <path
         style="fill:url(#linearGradient8236);fill-opacity:1;stroke:#419ae6;stroke-opacity:1"
         inkscape:connector-curvature="0"
         id="path171"
         clip-path="url(#clipPath9)"
         d="m 1,8.5 0,43 C 1,55.6421 4.3579,59 8.5,59 l 39,0 c 4.1421,0 7.5,-3.3579 7.5,-7.5 l 0,-43 C 55,4.3579 51.6421,1 47.5,1 L 8.5,1 C 4.3579,1 1,4.3579 1,8.5 z" />
    </g>
    <g
       style="font-size:14px;display:inline;font-family:Arial"
       id="g173"
       image-rendering="optimizeQuality"
       transform="translate(125,180)"
       font-size="14"
       text-rendering="geometricPrecision">
      <text
         style="stroke:none"
         id="text175"
         clip-path="url(#clipPath11)"
         y="14"
         x="5"
         xml:space="preserve">kinase</text>
    </g>
    <g
       style="font-size:10px;fill:#ffffff;stroke:#419ae6;stroke-width:2;display:inline;font-family:Arial;stroke-opacity:1"
       id="g177"
       image-rendering="optimizeQuality"
       text-rendering="optimizeLegibility"
       transform="translate(129,151)"
       font-size="10">
      <rect
         style="stroke:#419ae6;stroke-opacity:1"
         id="rect179"
         height="14"
         ry="7"
         rx="7"
         width="40"
         clip-path="url(#clipPath13)"
         y="1.5"
         x="1.5" />
      <rect
         style="fill:none;stroke:#419ae6;stroke-opacity:1"
         id="rect181"
         height="14"
         ry="7"
         rx="7"
         width="40"
         clip-path="url(#clipPath13)"
         y="1.5"
         x="1.5" />
    </g>
    <g
       style="font-size:10px;stroke-width:2;display:inline;font-family:Arial"
       id="g183"
       image-rendering="optimizeQuality"
       text-rendering="geometricPrecision"
       transform="translate(129,151)"
       font-size="10">
      <text
         style="stroke:none"
         id="text185"
         clip-path="url(#clipPath13)"
         y="12"
         x="8"
         xml:space="preserve">active</text>
    </g>
    <g
       style="fill:url(#linearGradient6769);fill-opacity:1;stroke:#ffffff;stroke-width:2;stroke-linecap:round;stroke-linejoin:round;display:inline;font-family:sans-serif"
       id="g187"
       image-rendering="optimizeQuality"
       text-rendering="optimizeLegibility"
       transform="translate(302,160)">
      <path
         style="fill:url(#linearGradient8253);fill-opacity:1;stroke:none"
         inkscape:connector-curvature="0"
         id="path189"
         clip-path="url(#clipPath9)"
         d="m 1,8.5 0,43 C 1,55.6421 4.3579,59 8.5,59 l 39,0 c 4.1421,0 7.5,-3.3579 7.5,-7.5 l 0,-43 C 55,4.3579 51.6421,1 47.5,1 L 8.5,1 C 4.3579,1 1,4.3579 1,8.5 z" />
      <path
         style="fill:url(#linearGradient8238);fill-opacity:1;stroke:#419ae6;stroke-opacity:1"
         inkscape:connector-curvature="0"
         id="path191"
         clip-path="url(#clipPath9)"
         d="m 1,8.5 0,43 C 1,55.6421 4.3579,59 8.5,59 l 39,0 c 4.1421,0 7.5,-3.3579 7.5,-7.5 l 0,-43 C 55,4.3579 51.6421,1 47.5,1 L 8.5,1 C 4.3579,1 1,4.3579 1,8.5 z" />
    </g>
    <g
       style="font-size:14px;display:inline;font-family:Arial"
       id="g193"
       image-rendering="optimizeQuality"
       transform="translate(299,179)"
       font-size="14"
       text-rendering="geometricPrecision">
      <text
         style="stroke:none"
         id="text195"
         clip-path="url(#clipPath15)"
         y="14"
         x="5"
         xml:space="preserve">receptor</text>
    </g>
    <g
       style="fill:url(#linearGradient6753);fill-opacity:1;fill-rule:nonzero;stroke:#419ae6;stroke-width:2;stroke-linecap:round;stroke-linejoin:round;display:inline;font-family:sans-serif;stroke-opacity:1"
       id="g197"
       image-rendering="optimizeQuality"
       text-rendering="optimizeLegibility"
       transform="translate(308,42)">
      <path
         style="fill:url(#linearGradient6753);fill-opacity:1;fill-rule:nonzero;stroke:#419ae6;stroke-opacity:1"
         inkscape:connector-curvature="0"
         id="path199"
         clip-path="url(#clipPath16)"
         d="m 1,8.5 0,29 C 1,41.6421 4.3579,45 8.5,45 l 25,0 c 4.1421,0 7.5,-3.3579 7.5,-7.5 l 0,-29 C 41,4.3579 37.6421,1 33.5,1 L 8.5,1 C 4.3579,1 1,4.3579 1,8.5 z" />
      <path
         style="fill:url(#linearGradient8232);fill-opacity:1;fill-rule:nonzero;stroke:#419ae6;stroke-opacity:1"
         inkscape:connector-curvature="0"
         id="path201"
         clip-path="url(#clipPath16)"
         d="m 1,8.5 0,29 C 1,41.6421 4.3579,45 8.5,45 l 25,0 c 4.1421,0 7.5,-3.3579 7.5,-7.5 l 0,-29 C 41,4.3579 37.6421,1 33.5,1 L 8.5,1 C 4.3579,1 1,4.3579 1,8.5 z" />
    </g>
    <g
       style="font-size:14px;display:inline;font-family:Arial"
       id="g203"
       image-rendering="optimizeQuality"
       transform="translate(320,56)"
       font-size="14"
       text-rendering="geometricPrecision">
      <text
         style="stroke:none"
         id="text205"
         clip-path="url(#clipPath18)"
         y="14"
         x="5"
         xml:space="preserve">L</text>
    </g>
  </g>
</svg>
