<?xml version="1.0" encoding="UTF-8" standalone="no"?>
<!-- Created with Inkscape (http://www.inkscape.org/) -->
<svg
   xmlns:dc="http://purl.org/dc/elements/1.1/"
   xmlns:cc="http://creativecommons.org/ns#"
   xmlns:rdf="http://www.w3.org/1999/02/22-rdf-syntax-ns#"
   xmlns:svg="http://www.w3.org/2000/svg"
   xmlns="http://www.w3.org/2000/svg"
   xmlns:xlink="http://www.w3.org/1999/xlink"
   xmlns:sodipodi="http://sodipodi.sourceforge.net/DTD/sodipodi-0.dtd"
   xmlns:inkscape="http://www.inkscape.org/namespaces/inkscape"
   width="1052.3622"
   height="744.09448"
   id="svg2"
   sodipodi:version="0.32"
   inkscape:version="0.46"
   version="1.0"
   sodipodi:docbase="/home/lenov/SBGN/svn/sbgn/trunk/documents/specifications/ProcessDiagram/Level1/images"
   sodipodi:docname="delay.svg"
   inkscape:output_extension="org.inkscape.output.svg.inkscape"
   inkscape:export-filename="/home/lenov/SBGN/svn/sbgn/EntityRelationship/trunk/images/delay.png"
   inkscape:export-xdpi="150"
   inkscape:export-ydpi="150">
  <defs
     id="defs4">
    <inkscape:perspective
       sodipodi:type="inkscape:persp3d"
       inkscape:vp_x="0 : 372.04724 : 1"
       inkscape:vp_y="0 : 1000 : 0"
       inkscape:vp_z="1052.3622 : 372.04724 : 1"
       inkscape:persp3d-origin="526.18109 : 248.03149 : 1"
       id="perspective2425" />
    <marker
       inkscape:stockid="Arrow1Mend"
       orient="auto"
       refY="0.0"
       refX="0.0"
       id="Arrow1Mend"
       style="overflow:visible;">
      <path
         id="path2972"
         d="M 0.0,0.0 L 5.0,-5.0 L -12.5,0.0 L 5.0,5.0 L 0.0,0.0 z "
         style="fill-rule:evenodd;stroke:#000000;stroke-width:1.0pt;marker-start:none;"
         transform="scale(0.4) rotate(180) translate(10,0)" />
    </marker>
    <marker
       inkscape:stockid="Arrow1Lend"
       orient="auto"
       refY="0.0"
       refX="0.0"
       id="Arrow1Lend"
       style="overflow:visible;">
      <path
         id="path2978"
         d="M 0.0,0.0 L 5.0,-5.0 L -12.5,0.0 L 5.0,5.0 L 0.0,0.0 z "
         style="fill-rule:evenodd;stroke:#000000;stroke-width:1.0pt;marker-start:none;"
         transform="scale(0.8) rotate(180) translate(12.5,0)" />
    </marker>
  </defs>
  <sodipodi:namedview
     id="base"
     pagecolor="#ffffff"
     bordercolor="#666666"
     borderopacity="1.0"
     gridtolerance="10000"
     guidetolerance="10"
     objecttolerance="10"
     inkscape:pageopacity="0.0"
     inkscape:pageshadow="2"
     inkscape:zoom="3.959798"
     inkscape:cx="380.11522"
     inkscape:cy="454.68163"
     inkscape:document-units="px"
     inkscape:current-layer="layer2"
     width="1052.3622px"
     height="744.09448px"
     inkscape:window-width="993"
     inkscape:window-height="744"
     inkscape:window-x="0"
     inkscape:window-y="0"
     showguides="true"
     inkscape:guide-bbox="true"
     showgrid="false">
    <sodipodi:guide
       orientation="vertical"
       position="198.92857"
       id="guide2990" />
  </sodipodi:namedview>
  <metadata
     id="metadata7">
    <rdf:RDF>
      <cc:Work
         rdf:about="">
        <dc:format>image/svg+xml</dc:format>
        <dc:type
           rdf:resource="http://purl.org/dc/dcmitype/StillImage" />
      </cc:Work>
    </rdf:RDF>
  </metadata>
  <g
     inkscape:groupmode="layer"
     id="layer2"
     inkscape:label="final"
     style="opacity:1">
    <use
       style="opacity:1"
       x="0"
       y="0"
       xlink:href="#path10018"
       id="use10020"
       transform="translate(190,-1.6352364e-2)"
       width="1052.3622"
       height="744.09448" />
    <path
       id="path10018"
       d="M 298.1908,293.56048 L 257.30177,293.58878"
       style="opacity:1;fill:none;fill-opacity:0.75;fill-rule:evenodd;stroke:#969696;stroke-width:3;stroke-linecap:butt;stroke-linejoin:miter;stroke-miterlimit:4;stroke-dasharray:none;stroke-dashoffset:0;stroke-opacity:1"
       sodipodi:nodetypes="cc" />
    <path
       id="path2215"
       d="M 370.39183,293.88374 L 296.89389,293.59093"
       style="opacity:1;fill:none;fill-opacity:0.75;fill-rule:evenodd;stroke:#000000;stroke-width:3;stroke-linecap:butt;stroke-linejoin:miter;stroke-miterlimit:4;stroke-dasharray:none;stroke-dashoffset:0;stroke-opacity:1"
       sodipodi:nodetypes="cc" />
    <path
       id="path5151"
       d="M 449.39183,293.5266 L 375.89389,293.23379"
       style="opacity:1;fill:none;fill-opacity:0.75;fill-rule:evenodd;stroke:#000000;stroke-width:3;stroke-linecap:butt;stroke-linejoin:miter;stroke-miterlimit:4;stroke-dasharray:none;stroke-dashoffset:0;stroke-opacity:1"
       sodipodi:nodetypes="cc" />
    <path
       sodipodi:type="arc"
       style="opacity:1;fill:#ffffff;fill-opacity:1;fill-rule:nonzero;stroke:#000000;stroke-width:5.25641012;stroke-linecap:round;stroke-miterlimit:4;stroke-dasharray:none;stroke-dashoffset:0;stroke-opacity:1"
       id="path3235"
       sodipodi:cx="394.28571"
       sodipodi:cy="289.09448"
       sodipodi:rx="41.42857"
       sodipodi:ry="41.42857"
       d="M 435.71428 289.09448 A 41.42857 41.42857 0 1 1  352.85714,289.09448 A 41.42857 41.42857 0 1 1  435.71428 289.09448 z"
       transform="matrix(0.9512195,0,0,0.9512195,-2.9093944,18.030745)" />
    <path
       style="font-size:2050.27807617px;font-style:normal;font-weight:normal;fill:#000000;fill-opacity:1;stroke:none;stroke-width:1px;stroke-linecap:butt;stroke-linejoin:miter;stroke-opacity:1;font-family:Times New Roman"
       d="M 374.62926,279.04875 L 373.38499,291.36279 C 373.18474,293.50811 373.08463,295.65341 373.08464,297.7987 C 373.08463,301.88908 373.56374,304.37048 374.522,305.2429 C 375.48021,306.11533 376.57431,306.55154 377.80431,306.55153 C 380.55027,306.55154 382.1807,304.82099 382.6956,301.3599 L 384.28312,301.3599 C 383.33916,309.31182 380.17842,313.28778 374.80089,313.28778 C 369.16587,313.28778 366.34838,310.05553 366.34839,303.59101 C 366.34838,300.33017 366.66303,296.2684 367.29233,291.40569 L 368.87985,279.04875 L 364.63215,279.04875 C 362.28661,279.04879 360.46311,279.44209 359.16163,280.22867 C 357.86014,281.01531 356.65162,282.59568 355.53607,284.96979 L 353.99145,284.96979 C 354.90678,281.82337 355.99373,279.32767 357.25231,277.48268 C 358.51088,275.63776 359.71225,274.39348 360.85642,273.74985 C 362.00057,273.1063 363.70251,272.78451 365.96224,272.78447 L 387.07201,272.78447 L 387.07201,279.04875 L 374.62926,279.04875 z"
       id="text2175"
       sodipodi:nodetypes="cccccccsccccccccccccc" />
  </g>
</svg>
