<?xml version="1.0" encoding="UTF-8" standalone="no"?>
<!-- Created with Inkscape (http://www.inkscape.org/) -->

<svg
   xmlns:dc="http://purl.org/dc/elements/1.1/"
   xmlns:cc="http://creativecommons.org/ns#"
   xmlns:rdf="http://www.w3.org/1999/02/22-rdf-syntax-ns#"
   xmlns:svg="http://www.w3.org/2000/svg"
   xmlns="http://www.w3.org/2000/svg"
   xmlns:sodipodi="http://sodipodi.sourceforge.net/DTD/sodipodi-0.dtd"
   xmlns:inkscape="http://www.inkscape.org/namespaces/inkscape"
   width="469.2803"
   height="288.03714"
   id="svg2"
   sodipodi:version="0.32"
   inkscape:version="0.48.2 r9819"
   sodipodi:docname="entity-identity.svg"
   inkscape:output_extension="org.inkscape.output.svg.inkscape"
   version="1.0"
   inkscape:export-filename="/Users/asorokin/Documents/Projects/Notation/sbgn-code/EntityRelationship/trunk/images/entity-identity.png"
   inkscape:export-xdpi="150"
   inkscape:export-ydpi="150">
  <defs
     id="defs4">
    <inkscape:perspective
       sodipodi:type="inkscape:persp3d"
       inkscape:vp_x="0 : 125.4025 : 1"
       inkscape:vp_y="0 : 1000 : 0"
       inkscape:vp_z="386.42856 : 125.4025 : 1"
       inkscape:persp3d-origin="193.21428 : 83.601664 : 1"
       id="perspective17" />
    <marker
       style="overflow:visible"
       id="Arrow1Lend"
       refX="0"
       refY="0"
       orient="auto"
       inkscape:stockid="Arrow1Lend">
      <path
         transform="matrix(-0.8,0,0,-0.8,-10,0)"
         style="fill-rule:evenodd;stroke:#000000;stroke-width:1pt;marker-start:none"
         d="M 0,0 5,-5 -12.5,0 5,5 0,0 z"
         id="path2978"
         inkscape:connector-curvature="0" />
    </marker>
    <marker
       style="overflow:visible"
       id="Arrow1Mend"
       refX="0"
       refY="0"
       orient="auto"
       inkscape:stockid="Arrow1Mend">
      <path
         transform="matrix(-0.4,0,0,-0.4,-4,0)"
         style="fill-rule:evenodd;stroke:#000000;stroke-width:1pt;marker-start:none"
         d="M 0,0 5,-5 -12.5,0 5,5 0,0 z"
         id="path2972"
         inkscape:connector-curvature="0" />
    </marker>
    <marker
       style="overflow:visible"
       id="Arrow1Mstart"
       refX="0"
       refY="0"
       orient="auto"
       inkscape:stockid="Arrow1Mstart">
      <path
         transform="matrix(0.4,0,0,0.4,4,0)"
         style="fill-rule:evenodd;stroke:#000000;stroke-width:1pt;marker-start:none"
         d="M 0,0 5,-5 -12.5,0 5,5 0,0 z"
         id="path3229"
         inkscape:connector-curvature="0" />
    </marker>
    <inkscape:perspective
       id="perspective73"
       inkscape:persp3d-origin="526.18109 : 248.03149 : 1"
       inkscape:vp_z="1052.3622 : 372.04724 : 1"
       inkscape:vp_y="0 : 1000 : 0"
       inkscape:vp_x="0 : 372.04724 : 1"
       sodipodi:type="inkscape:persp3d" />
    <marker
       style="overflow:visible"
       id="Arrow1Send"
       refX="0"
       refY="0"
       orient="auto"
       inkscape:stockid="Arrow1Send">
      <path
         transform="matrix(-0.2,0,0,-0.2,-1.2,0)"
         style="fill-rule:evenodd;stroke:#000000;stroke-width:1pt;marker-start:none"
         d="M 0,0 5,-5 -12.5,0 5,5 0,0 z"
         id="path3269"
         inkscape:connector-curvature="0" />
    </marker>
    <marker
       inkscape:stockid="Arrow1MendvK"
       orient="auto"
       refY="0"
       refX="0"
       id="Arrow1MendvK"
       style="overflow:visible">
      <path
         id="path11944"
         d="M 0,0 5,-5 -12.5,0 5,5 0,0 z"
         style="fill:#000000;fill-rule:evenodd;stroke:#000000;stroke-width:1pt;marker-start:none"
         transform="matrix(-0.4,0,0,-0.4,-4,0)"
         inkscape:connector-curvature="0" />
    </marker>
    <marker
       inkscape:stockid="Arrow1Mendv9"
       orient="auto"
       refY="0"
       refX="0"
       id="Arrow1Mendv9"
       style="overflow:visible">
      <path
         id="path11941"
         d="M 0,0 5,-5 -12.5,0 5,5 0,0 z"
         style="fill:#000000;fill-rule:evenodd;stroke:#000000;stroke-width:1pt;marker-start:none"
         transform="matrix(-0.4,0,0,-0.4,-4,0)"
         inkscape:connector-curvature="0" />
    </marker>
    <marker
       inkscape:stockid="Arrow1Mend80"
       orient="auto"
       refY="0"
       refX="0"
       id="Arrow1Mend80"
       style="overflow:visible">
      <path
         id="path11404"
         d="M 0,0 5,-5 -12.5,0 5,5 0,0 z"
         style="fill:#000000;fill-rule:evenodd;stroke:#000000;stroke-width:1pt;marker-start:none"
         transform="matrix(-0.4,0,0,-0.4,-4,0)"
         inkscape:connector-curvature="0" />
    </marker>
    <marker
       inkscape:stockid="Arrow1Mend6sg"
       orient="auto"
       refY="0"
       refX="0"
       id="Arrow1Mend6sg"
       style="overflow:visible">
      <path
         id="path11401"
         d="M 0,0 5,-5 -12.5,0 5,5 0,0 z"
         style="fill:#000000;fill-rule:evenodd;stroke:#000000;stroke-width:1pt;marker-start:none"
         transform="matrix(-0.4,0,0,-0.4,-4,0)"
         inkscape:connector-curvature="0" />
    </marker>
    <marker
       inkscape:stockid="Arrow1MstartMO"
       orient="auto"
       refY="0"
       refX="0"
       id="Arrow1MstartMO"
       style="overflow:visible">
      <path
         id="path11398"
         d="M 0,0 5,-5 -12.5,0 5,5 0,0 z"
         style="fill:#000000;fill-rule:evenodd;stroke:#000000;stroke-width:1pt;marker-start:none"
         transform="matrix(0.4,0,0,0.4,4,0)"
         inkscape:connector-curvature="0" />
    </marker>
    <marker
       inkscape:stockid="Arrow1Mend1a"
       orient="auto"
       refY="0"
       refX="0"
       id="Arrow1Mend1a"
       style="overflow:visible">
      <path
         id="path10873"
         d="M 0,0 5,-5 -12.5,0 5,5 0,0 z"
         style="fill:#000000;fill-rule:evenodd;stroke:#000000;stroke-width:1pt;marker-start:none"
         transform="matrix(-0.4,0,0,-0.4,-4,0)"
         inkscape:connector-curvature="0" />
    </marker>
    <marker
       inkscape:stockid="Arrow1Mend9pS"
       orient="auto"
       refY="0"
       refX="0"
       id="Arrow1Mend9pS"
       style="overflow:visible">
      <path
         id="path10352"
         d="M 0,0 5,-5 -12.5,0 5,5 0,0 z"
         style="fill:#000000;fill-rule:evenodd;stroke:#000000;stroke-width:1pt;marker-start:none"
         transform="matrix(-0.4,0,0,-0.4,-4,0)"
         inkscape:connector-curvature="0" />
    </marker>
    <marker
       inkscape:stockid="Arrow1Mendne"
       orient="auto"
       refY="0"
       refX="0"
       id="Arrow1Mendne"
       style="overflow:visible">
      <path
         id="path9835"
         d="M 0,0 5,-5 -12.5,0 5,5 0,0 z"
         style="fill:#000000;fill-rule:evenodd;stroke:#000000;stroke-width:1pt;marker-start:none"
         transform="matrix(-0.4,0,0,-0.4,-4,0)"
         inkscape:connector-curvature="0" />
    </marker>
    <marker
       inkscape:stockid="Arrow1MendvX"
       orient="auto"
       refY="0"
       refX="0"
       id="Arrow1MendvX"
       style="overflow:visible">
      <path
         id="path9832"
         d="M 0,0 5,-5 -12.5,0 5,5 0,0 z"
         style="fill:#000000;fill-rule:evenodd;stroke:#000000;stroke-width:1pt;marker-start:none"
         transform="matrix(-0.4,0,0,-0.4,-4,0)"
         inkscape:connector-curvature="0" />
    </marker>
    <marker
       inkscape:stockid="Arrow1Mend68"
       orient="auto"
       refY="0"
       refX="0"
       id="Arrow1Mend68"
       style="overflow:visible">
      <path
         id="path9829"
         d="M 0,0 5,-5 -12.5,0 5,5 0,0 z"
         style="fill:#000000;fill-rule:evenodd;stroke:#000000;stroke-width:1pt;marker-start:none"
         transform="matrix(-0.4,0,0,-0.4,-4,0)"
         inkscape:connector-curvature="0" />
    </marker>
    <marker
       inkscape:stockid="Arrow1Mend94"
       orient="auto"
       refY="0"
       refX="0"
       id="Arrow1Mend94"
       style="overflow:visible">
      <path
         id="path9324"
         d="M 0,0 5,-5 -12.5,0 5,5 0,0 z"
         style="fill:#000000;fill-rule:evenodd;stroke:#000000;stroke-width:1pt;marker-start:none"
         transform="matrix(-0.4,0,0,-0.4,-4,0)"
         inkscape:connector-curvature="0" />
    </marker>
    <marker
       inkscape:stockid="Arrow1Mendj3"
       orient="auto"
       refY="0"
       refX="0"
       id="Arrow1Mendj3"
       style="overflow:visible">
      <path
         id="path8823"
         d="M 0,0 5,-5 -12.5,0 5,5 0,0 z"
         style="fill:#000000;fill-rule:evenodd;stroke:#000000;stroke-width:1pt;marker-start:none"
         transform="matrix(-0.4,0,0,-0.4,-4,0)"
         inkscape:connector-curvature="0" />
    </marker>
    <marker
       inkscape:stockid="Arrow1Mend1"
       orient="auto"
       refY="0"
       refX="0"
       id="Arrow1Mend1"
       style="overflow:visible">
      <path
         id="path8060"
         d="M 0,0 5,-5 -12.5,0 5,5 0,0 z"
         style="fill:#0000ff;fill-rule:evenodd;stroke:#0000ff;stroke-width:1pt;marker-start:none"
         transform="matrix(-0.4,0,0,-0.4,-4,0)"
         inkscape:connector-curvature="0" />
    </marker>
    <marker
       inkscape:stockid="Arrow1Mend6s"
       orient="auto"
       refY="0"
       refX="0"
       id="Arrow1Mend6s"
       style="overflow:visible">
      <path
         id="path7579"
         d="M 0,0 5,-5 -12.5,0 5,5 0,0 z"
         style="fill:#0000ff;fill-rule:evenodd;stroke:#0000ff;stroke-width:1pt;marker-start:none"
         transform="matrix(-0.4,0,0,-0.4,-4,0)"
         inkscape:connector-curvature="0" />
    </marker>
    <marker
       inkscape:stockid="Arrow1MstartM"
       orient="auto"
       refY="0"
       refX="0"
       id="Arrow1MstartM"
       style="overflow:visible">
      <path
         id="path7576"
         d="M 0,0 5,-5 -12.5,0 5,5 0,0 z"
         style="fill:#0000ff;fill-rule:evenodd;stroke:#0000ff;stroke-width:1pt;marker-start:none"
         transform="matrix(0.4,0,0,0.4,4,0)"
         inkscape:connector-curvature="0" />
    </marker>
    <marker
       inkscape:stockid="Arrow1Mendn"
       orient="auto"
       refY="0"
       refX="0"
       id="Arrow1Mendn"
       style="overflow:visible">
      <path
         id="path7091"
         d="M 0,0 5,-5 -12.5,0 5,5 0,0 z"
         style="fill:#0000ff;fill-rule:evenodd;stroke:#0000ff;stroke-width:1pt;marker-start:none"
         transform="matrix(-0.4,0,0,-0.4,-4,0)"
         inkscape:connector-curvature="0" />
    </marker>
    <marker
       inkscape:stockid="Arrow1Mend8"
       orient="auto"
       refY="0"
       refX="0"
       id="Arrow1Mend8"
       style="overflow:visible">
      <path
         id="path7088"
         d="M 0,0 5,-5 -12.5,0 5,5 0,0 z"
         style="fill:#0000ff;fill-rule:evenodd;stroke:#0000ff;stroke-width:1pt;marker-start:none"
         transform="matrix(-0.4,0,0,-0.4,-4,0)"
         inkscape:connector-curvature="0" />
    </marker>
    <marker
       inkscape:stockid="Arrow1Mend9p"
       orient="auto"
       refY="0"
       refX="0"
       id="Arrow1Mend9p"
       style="overflow:visible">
      <path
         id="path6623"
         d="M 0,0 5,-5 -12.5,0 5,5 0,0 z"
         style="fill:#ff0000;fill-rule:evenodd;stroke:#ff0000;stroke-width:1pt;marker-start:none"
         transform="matrix(-0.4,0,0,-0.4,-4,0)"
         inkscape:connector-curvature="0" />
    </marker>
    <marker
       inkscape:stockid="Arrow1Mendv"
       orient="auto"
       refY="0"
       refX="0"
       id="Arrow1Mendv"
       style="overflow:visible">
      <path
         id="path5131"
         d="M 0,0 5,-5 -12.5,0 5,5 0,0 z"
         style="fill:#ff0000;fill-rule:evenodd;stroke:#ff0000;stroke-width:1pt;marker-start:none"
         transform="matrix(-0.4,0,0,-0.4,-4,0)"
         inkscape:connector-curvature="0" />
    </marker>
    <marker
       inkscape:stockid="Arrow1Mend6"
       orient="auto"
       refY="0"
       refX="0"
       id="Arrow1Mend6"
       style="overflow:visible">
      <path
         id="path5128"
         d="M 0,0 5,-5 -12.5,0 5,5 0,0 z"
         style="fill:#ff0000;fill-rule:evenodd;stroke:#ff0000;stroke-width:1pt;marker-start:none"
         transform="matrix(-0.4,0,0,-0.4,-4,0)"
         inkscape:connector-curvature="0" />
    </marker>
    <marker
       inkscape:stockid="Arrow1Mend9"
       orient="auto"
       refY="0"
       refX="0"
       id="Arrow1Mend9"
       style="overflow:visible">
      <path
         id="path4711"
         d="M 0,0 5,-5 -12.5,0 5,5 0,0 z"
         style="fill:#0000ff;fill-rule:evenodd;stroke:#0000ff;stroke-width:1pt;marker-start:none"
         transform="matrix(-0.4,0,0,-0.4,-4,0)"
         inkscape:connector-curvature="0" />
    </marker>
    <marker
       inkscape:stockid="Arrow1Mendj"
       orient="auto"
       refY="0"
       refX="0"
       id="Arrow1Mendj"
       style="overflow:visible">
      <path
         id="path4298"
         d="M 0,0 5,-5 -12.5,0 5,5 0,0 z"
         style="fill:#0000ff;fill-rule:evenodd;stroke:#0000ff;stroke-width:1pt;marker-start:none"
         transform="matrix(-0.4,0,0,-0.4,-4,0)"
         inkscape:connector-curvature="0" />
    </marker>
    <marker
       inkscape:stockid="Arrow1Lend"
       orient="auto"
       refY="0"
       refX="0"
       id="Arrow1Lend-3"
       style="overflow:visible">
      <path
         id="path2978-8"
         d="M 0,0 5,-5 -12.5,0 5,5 0,0 z"
         style="fill-rule:evenodd;stroke:#000000;stroke-width:1pt;marker-start:none"
         transform="matrix(-0.8,0,0,-0.8,-10,0)"
         inkscape:connector-curvature="0" />
    </marker>
    <marker
       inkscape:stockid="Arrow1Mend"
       orient="auto"
       refY="0"
       refX="0"
       id="Arrow1Mend-3"
       style="overflow:visible">
      <path
         id="path2972-3"
         d="M 0,0 5,-5 -12.5,0 5,5 0,0 z"
         style="fill-rule:evenodd;stroke:#000000;stroke-width:1pt;marker-start:none"
         transform="matrix(-0.4,0,0,-0.4,-4,0)"
         inkscape:connector-curvature="0" />
    </marker>
    <marker
       inkscape:stockid="Arrow1Mstart"
       orient="auto"
       refY="0"
       refX="0"
       id="Arrow1Mstart-9"
       style="overflow:visible">
      <path
         id="path3229-5"
         d="M 0,0 5,-5 -12.5,0 5,5 0,0 z"
         style="fill-rule:evenodd;stroke:#000000;stroke-width:1pt;marker-start:none"
         transform="matrix(0.4,0,0,0.4,4,0)"
         inkscape:connector-curvature="0" />
    </marker>
    <inkscape:perspective
       sodipodi:type="inkscape:persp3d"
       inkscape:vp_x="0 : 372.04724 : 1"
       inkscape:vp_y="6.1230318e-14 : 1000 : 0"
       inkscape:vp_z="1052.3622 : 372.04724 : 1"
       inkscape:persp3d-origin="526.18109 : 248.03149 : 1"
       id="perspective73-7" />
    <marker
       inkscape:stockid="Arrow1Send"
       orient="auto"
       refY="0"
       refX="0"
       id="Arrow1Send-9"
       style="overflow:visible">
      <path
         id="path3269-7"
         d="M 0,0 5,-5 -12.5,0 5,5 0,0 z"
         style="fill-rule:evenodd;stroke:#000000;stroke-width:1pt;marker-start:none"
         transform="matrix(-0.2,0,0,-0.2,-1.2,0)"
         inkscape:connector-curvature="0" />
    </marker>
  </defs>
  <sodipodi:namedview
     id="base"
     pagecolor="#ffffff"
     bordercolor="#666666"
     borderopacity="1.0"
     gridtolerance="10000"
     guidetolerance="10"
     objecttolerance="10"
     inkscape:pageopacity="0.0"
     inkscape:pageshadow="2"
     inkscape:zoom="1.1345078"
     inkscape:cx="233.73876"
     inkscape:cy="44.431327"
     inkscape:document-units="px"
     inkscape:current-layer="layer3"
     showguides="true"
     inkscape:guide-bbox="true"
     inkscape:window-width="993"
     inkscape:window-height="743"
     inkscape:window-x="0"
     inkscape:window-y="0"
     width="1052.3622px"
     height="744.09448px"
     showgrid="false"
     inkscape:window-maximized="0"
     fit-margin-top="10"
     fit-margin-left="10"
     fit-margin-right="10"
     fit-margin-bottom="10">
    <sodipodi:guide
       orientation="horizontal"
       position="115.30702,210.7853"
       id="guide2177" />
  </sodipodi:namedview>
  <metadata
     id="metadata7">
    <rdf:RDF>
      <cc:Work
         rdf:about="">
        <dc:format>image/svg+xml</dc:format>
        <dc:type
           rdf:resource="http://purl.org/dc/dcmitype/StillImage" />
        <dc:title></dc:title>
      </cc:Work>
    </rdf:RDF>
  </metadata>
  <g
     inkscape:groupmode="layer"
     id="layer3"
     inkscape:label="existence"
     style="display:inline"
     transform="translate(50.080498,-22.826905)">
    <rect
       style="fill:#ffffff;fill-opacity:1;fill-rule:nonzero;stroke:#000000;stroke-width:3;stroke-miterlimit:4;stroke-opacity:1;stroke-dasharray:none;display:inline"
       id="rect22114"
       width="226.83272"
       height="74.972336"
       x="180.8671"
       y="136.24777"
       ry="20.619291"
       rx="19.73135" />
    <text
       xml:space="preserve"
       style="font-size:12px;font-style:normal;font-weight:normal;fill:#000000;fill-opacity:1;stroke:#000000;stroke-width:1px;stroke-linecap:butt;stroke-linejoin:miter;stroke-opacity:1;display:inline;font-family:Bitstream Vera Sans"
       x="302.30313"
       y="179.0415"
       id="text22116"><tspan
         sodipodi:role="line"
         x="302.30313"
         y="179.0415"
         style="font-size:24px;font-weight:normal;text-align:center;text-anchor:middle;stroke:none"
         id="tspan22118">CaMKII P@T306</tspan></text>
    <path
       transform="translate(-134.73729,-36.231697)"
       d="m 501.07676,171.92538 c 0,7.64359 -6.19636,13.83994 -13.83994,13.83994 -7.64359,0 -13.83994,-6.19635 -13.83994,-13.83994 0,-7.64358 6.19635,-13.83993 13.83994,-13.83993 7.64358,0 13.83994,6.19635 13.83994,13.83993 z"
       sodipodi:ry="13.839939"
       sodipodi:rx="13.839939"
       sodipodi:cy="171.92538"
       sodipodi:cx="487.23682"
       id="path4638"
       style="fill:#ffffff;fill-opacity:1;fill-rule:nonzero;stroke:#000000;stroke-width:3;stroke-miterlimit:4;stroke-opacity:1;stroke-dasharray:none;stroke-dashoffset:0"
       sodipodi:type="arc" />
    <path
       sodipodi:type="arc"
       style="fill:#000000;fill-opacity:1;fill-rule:nonzero;stroke:#000000;stroke-opacity:1"
       id="path4640"
       sodipodi:cx="487.23682"
       sodipodi:cy="171.92538"
       sodipodi:rx="13.839939"
       sodipodi:ry="13.839939"
       d="m 501.07676,171.92538 c 0,7.64359 -6.19636,13.83994 -13.83994,13.83994 -7.56838,0 -13.73313,-6.07943 -13.8386,-13.64706 l 13.8386,-0.19288 z"
       transform="matrix(0,-1,1,0,180.38644,622.79746)"
       sodipodi:start="0"
       sodipodi:end="3.1276563" />
    <path
       inkscape:connector-curvature="0"
       id="path4642"
       d="m 352.5591,62.07883 0,53.46711"
       style="fill:none;stroke:#000000;stroke-width:3;stroke-linecap:butt;stroke-linejoin:miter;stroke-miterlimit:4;stroke-opacity:1;stroke-dasharray:none;marker-end:url(#Arrow1Mend)" />
    <text
       xml:space="preserve"
       style="font-size:16px;font-style:normal;font-weight:normal;fill:#000000;fill-opacity:1;stroke:none;font-family:Bitstream Vera Sans"
       x="352.74222"
       y="54.168571"
       id="text4646"><tspan
         sodipodi:role="line"
         x="352.74222"
         y="54.168571"
         style="font-size:16px;font-weight:normal;text-align:center;text-anchor:middle"
         id="tspan4648">T</tspan></text>
    <path
       transform="translate(-134.73729,-123.75854)"
       d="m 501.07676,171.92538 c 0,7.64359 -6.19636,13.83994 -13.83994,13.83994 -7.64359,0 -13.83994,-6.19635 -13.83994,-13.83994 0,-7.64358 6.19635,-13.83993 13.83994,-13.83993 7.64358,0 13.83994,6.19635 13.83994,13.83993 z"
       sodipodi:ry="13.839939"
       sodipodi:rx="13.839939"
       sodipodi:cy="171.92538"
       sodipodi:cx="487.23682"
       id="path4650"
       style="fill:none;stroke:#000000;stroke-width:3;stroke-miterlimit:4;stroke-opacity:1;stroke-dasharray:none;stroke-dashoffset:0"
       sodipodi:type="arc" />
    <rect
       rx="19.73135"
       ry="20.619291"
       y="224.39172"
       x="179.98566"
       height="74.972336"
       width="226.83272"
       id="rect4613"
       style="fill:#ffffff;fill-opacity:1;fill-rule:nonzero;stroke:#000000;stroke-width:3;stroke-miterlimit:4;stroke-opacity:1;stroke-dasharray:none;display:inline" />
    <text
       id="text4615"
       y="267.18546"
       x="301.42169"
       style="font-size:12px;font-style:normal;font-weight:normal;fill:#000000;fill-opacity:1;stroke:#000000;stroke-width:1px;stroke-linecap:butt;stroke-linejoin:miter;stroke-opacity:1;display:inline;font-family:Bitstream Vera Sans"
       xml:space="preserve"><tspan
         id="tspan4617"
         style="font-size:24px;font-weight:normal;text-align:center;text-anchor:middle;stroke:none"
         y="267.18546"
         x="301.42169"
         sodipodi:role="line">CaMKII P@T286</tspan></text>
    <path
       style="fill:none;stroke:#000000;stroke-width:3;stroke-linecap:butt;stroke-linejoin:miter;stroke-miterlimit:4;stroke-opacity:1;stroke-dasharray:none"
       d="m 89.025391,-12.629602 0,0 L 71.3966,28.798055 87.262512,71.107151"
       id="path4619"
       inkscape:connector-curvature="0"
       transform="translate(91.796,184.19984)" />
  </g>
  <g
     inkscape:groupmode="layer"
     id="layer4"
     inkscape:label="outcome"
     style="display:inline"
     transform="translate(50.080498,-22.826905)">
    <rect
       rx="19.73135"
       ry="20.619291"
       y="175.11978"
       x="-38.580498"
       height="74.972336"
       width="141.33308"
       id="rect13329"
       style="fill:#ffffff;fill-opacity:1;fill-rule:nonzero;stroke:#000000;stroke-width:3;stroke-miterlimit:4;stroke-opacity:1;stroke-dasharray:none" />
    <text
       id="text13331"
       y="218.15063"
       x="31.732052"
       style="font-size:12px;font-style:normal;font-weight:normal;fill:#000000;fill-opacity:1;stroke:#000000;stroke-width:1px;stroke-linecap:butt;stroke-linejoin:miter;stroke-opacity:1;font-family:Bitstream Vera Sans"
       xml:space="preserve"><tspan
         id="tspan13333"
         style="font-size:24px;font-weight:normal;text-align:center;text-anchor:middle;stroke:none"
         y="218.15063"
         x="31.732052"
         sodipodi:role="line">CaMKII</tspan></text>
    <rect
       rx="13.558826"
       ry="13.891436"
       y="160.26715"
       x="13.298286"
       height="27.782871"
       width="60.630848"
       id="rect2453"
       style="fill:#ffffff;fill-opacity:1;fill-rule:nonzero;stroke:#000000;stroke-width:3;stroke-miterlimit:4;stroke-opacity:1;stroke-dasharray:none" />
    <text
       id="text2455"
       y="180.2406"
       x="43.355904"
       style="font-size:16px;font-style:normal;font-weight:normal;fill:#000000;fill-opacity:1;stroke:#000000;stroke-width:1px;stroke-linecap:butt;stroke-linejoin:miter;stroke-opacity:1;font-family:Bitstream Vera Sans"
       xml:space="preserve"><tspan
         id="tspan2457"
         style="font-size:16px;font-weight:normal;text-align:center;text-anchor:middle;stroke:none"
         y="180.2406"
         x="43.355904"
         sodipodi:role="line">T306</tspan></text>
    <path
       inkscape:connector-curvature="0"
       id="path2461"
       d="m 43.172809,99.949274 0,52.195266"
       style="fill:none;stroke:#000000;stroke-width:3;stroke-linecap:butt;stroke-linejoin:miter;stroke-miterlimit:4;stroke-opacity:1;stroke-dasharray:none;marker-end:url(#Arrow1Mend9pS)"
       sodipodi:nodetypes="cc" />
    <g
       id="g22187"
       transform="translate(-132.08677,34.929124)">
      <text
         id="text4584"
         y="57.311424"
         x="175.44267"
         style="font-size:16px;font-style:normal;font-weight:normal;fill:#000000;fill-opacity:1;stroke:#000000;stroke-width:1px;stroke-linecap:butt;stroke-linejoin:miter;stroke-opacity:1;font-family:Bitstream Vera Sans"
         xml:space="preserve"><tspan
           id="tspan4586"
           style="font-size:16px;font-weight:normal;text-align:center;text-anchor:middle;fill:#000000;fill-opacity:1;stroke:none"
           y="57.311424"
           x="175.44267"
           sodipodi:role="line">P</tspan></text>
      <path
         sodipodi:type="arc"
         style="fill:none;stroke:#000000;stroke-width:3;stroke-miterlimit:4;stroke-opacity:1;stroke-dasharray:none;stroke-dashoffset:0"
         id="path4588"
         sodipodi:cx="487.23682"
         sodipodi:cy="171.92538"
         sodipodi:rx="13.839939"
         sodipodi:ry="13.839939"
         d="m 501.07676,171.92538 c 0,7.64359 -6.19636,13.83994 -13.83994,13.83994 -7.64359,0 -13.83994,-6.19635 -13.83994,-13.83994 0,-7.64358 6.19635,-13.83993 13.83994,-13.83993 7.64358,0 13.83994,6.19635 13.83994,13.83993 z"
         transform="translate(-312.03681,-120.61569)" />
    </g>
    <text
       id="text4135"
       y="246.58293"
       x="-307.11398"
       style="font-size:12px;font-style:normal;font-variant:normal;font-weight:normal;font-stretch:normal;fill:#000000;fill-opacity:1;stroke:#000000;stroke-width:1px;stroke-linecap:butt;stroke-linejoin:miter;stroke-opacity:1;font-family:cmex10;-inkscape-font-specification:cmex10"
       xml:space="preserve"><tspan
         y="246.58293"
         x="-307.11398"
         id="tspan4137"
         sodipodi:role="line" /></text>
    <text
       id="text5523"
       y="180.80772"
       x="-327.62885"
       style="font-size:12px;font-style:normal;font-variant:normal;font-weight:normal;font-stretch:normal;fill:#000000;fill-opacity:1;stroke:#000000;stroke-width:1px;stroke-linecap:butt;stroke-linejoin:miter;stroke-opacity:1;font-family:Courier;-inkscape-font-specification:Courier"
       xml:space="preserve"><tspan
         y="180.80772"
         x="-327.62885"
         id="tspan5525"
         sodipodi:role="line" /></text>
    <g
       id="g3587"
       style="stroke-width:3;stroke-miterlimit:4;stroke-dasharray:none"
       transform="translate(287.51083,-29.229173)">
      <g
         id="g3494"
         transform="matrix(1.25,0,0,1.25,-198.99608,-35.789733)"
         style="stroke-width:2.4000001;stroke-miterlimit:4;stroke-dasharray:none">
        <path
           inkscape:connector-curvature="0"
           d="m 49.109,223.234 c 0,8.102 -6.523,14.664 -14.57,14.664 -8.047,0 -14.57,-6.562 -14.57,-14.664 0,-8.097 6.523,-14.664 14.57,-14.664 8.047,0 14.57,6.567 14.57,14.664 z"
           style="fill:#ffffff;fill-opacity:1;fill-rule:nonzero;stroke:#000000;stroke-width:2.4000001;stroke-linecap:round;stroke-linejoin:round;stroke-miterlimit:4;stroke-opacity:1;stroke-dasharray:none"
           id="path3496" />
      </g>
      <g
         id="g3498"
         transform="matrix(1.25,0,0,1.25,-198.99608,-35.789733)"
         style="stroke-width:2.4000001;stroke-miterlimit:4;stroke-dasharray:none">
        <path
           inkscape:connector-curvature="0"
           d="m 10.641,223.285 9.14,0.059"
           style="fill:none;stroke:#000000;stroke-width:2.4000001;stroke-linecap:butt;stroke-linejoin:miter;stroke-miterlimit:4;stroke-opacity:1;stroke-dasharray:none"
           id="path3500" />
      </g>
      <g
         id="g3502"
         transform="matrix(1.25,0,0,1.25,-198.99608,-35.789733)"
         style="stroke-width:2.4000001;stroke-miterlimit:4;stroke-dasharray:none">
        <path
           inkscape:connector-curvature="0"
           d="m 49.176,223.457 11.285,0"
           style="fill:none;stroke:#000000;stroke-width:2.4000001;stroke-linecap:butt;stroke-linejoin:miter;stroke-miterlimit:4;stroke-opacity:1;stroke-dasharray:none"
           id="path3504" />
      </g>
      <path
         inkscape:connector-curvature="0"
         d="m -164.32358,237.32978 16.9975,0.0737"
         style="fill:none;stroke:#000000;stroke-width:3;stroke-linecap:butt;stroke-linejoin:miter;stroke-miterlimit:4;stroke-opacity:1;stroke-dasharray:none"
         id="path3506" />
      <path
         inkscape:connector-curvature="0"
         d="m -164.32358,243.21853 16.9975,0.0738"
         style="fill:none;stroke:#000000;stroke-width:3;stroke-linecap:butt;stroke-linejoin:miter;stroke-miterlimit:4;stroke-opacity:1;stroke-dasharray:none"
         id="path3508" />
      <path
         inkscape:connector-curvature="0"
         d="m -164.32358,249.10728 16.9975,0.0737"
         style="fill:none;stroke:#000000;stroke-width:3;stroke-linecap:butt;stroke-linejoin:miter;stroke-miterlimit:4;stroke-opacity:1;stroke-dasharray:none"
         id="path3510" />
    </g>
  </g>
  <g
     inkscape:groupmode="layer"
     id="layer1"
     inkscape:label="Layer"
     style="display:none"
     transform="translate(37.772738,36.969305)">
    <g
       transform="matrix(0,-1.25,1.25,0,-198.99608,-35.789733)"
       id="g3512">
      <path
         id="path3514"
         style="fill:#ffffff;fill-opacity:1;fill-rule:nonzero;stroke:#000000;stroke-width:0.80000001;stroke-linecap:round;stroke-linejoin:round;stroke-miterlimit:4;stroke-opacity:1;stroke-dasharray:none"
         d="m -161.336,381.691 c 0,8.098 -6.523,14.664 -14.57,14.664 -8.047,0 -14.571,-6.566 -14.571,-14.664 0,-8.097 6.524,-14.664 14.571,-14.664 8.047,0 14.57,6.567 14.57,14.664 z"
         inkscape:connector-curvature="0" />
    </g>
    <g
       transform="matrix(0,-1.25,-1.25,0,-198.99608,-35.789733)"
       id="g3516">
      <path
         id="path3518"
         style="fill:none;stroke:#000000;stroke-width:0.80000001;stroke-linecap:butt;stroke-linejoin:miter;stroke-miterlimit:4;stroke-opacity:1;stroke-dasharray:none"
         d="m -199.801,-381.742 9.141,-0.055"
         inkscape:connector-curvature="0" />
    </g>
    <g
       transform="matrix(0,-1.25,-1.25,0,-198.99608,-35.789733)"
       id="g3520">
      <path
         id="path3522"
         style="fill:none;stroke:#000000;stroke-width:0.80000001;stroke-linecap:butt;stroke-linejoin:miter;stroke-miterlimit:4;stroke-opacity:1;stroke-dasharray:none"
         d="m -161.266,-381.91 11.282,0"
         inkscape:connector-curvature="0" />
    </g>
    <path
       id="path3524"
       style="fill:none;stroke:#000000;stroke-width:1;stroke-linecap:butt;stroke-linejoin:miter;stroke-miterlimit:4;stroke-opacity:1;stroke-dasharray:none"
       d="m 269.62267,176.90103 16.99125,0.0725"
       inkscape:connector-curvature="0" />
    <path
       id="path3526"
       style="fill:none;stroke:#000000;stroke-width:1;stroke-linecap:butt;stroke-linejoin:miter;stroke-miterlimit:4;stroke-opacity:1;stroke-dasharray:none"
       d="m 269.62267,182.78978 16.99125,0.0725"
       inkscape:connector-curvature="0" />
    <path
       id="path3528"
       style="fill:none;stroke:#000000;stroke-width:1;stroke-linecap:butt;stroke-linejoin:miter;stroke-miterlimit:4;stroke-opacity:1;stroke-dasharray:none"
       d="m 269.62267,188.67853 16.99125,0.0725"
       inkscape:connector-curvature="0" />
  </g>
</svg>
